<svg width="45" height="42" viewBox="0 0 45 42" fill="none" xmlns="http://www.w3.org/2000/svg">
<rect width="45" height="42" rx="8" fill="#FFE6BD"/>
<path d="M32.8099 21.8152C32.8819 21.8557 32.8963 21.9416 32.8992 21.9743L32.9 21.9874L32.8199 27.1519C32.8199 29.212 31.2237 30.892 29.2138 30.995L29.018 31H16.972C14.9366 31 13.2768 29.3844 13.175 27.3501L13.1701 27.1519L13.1001 21.9874C13.1001 21.9874 13.1001 21.8659 13.1901 21.8152C13.2701 21.7646 13.3702 21.8254 13.3802 21.8355C15.4012 23.1924 17.8324 24.0937 20.3837 24.4684C20.7439 24.519 21.1041 24.2861 21.2041 23.9216C21.4105 23.1431 22.0477 22.6138 22.8273 22.5507L22.985 22.5443H23.015C23.8654 22.5443 24.5758 23.0912 24.7959 23.9216C24.8959 24.2861 25.2561 24.519 25.6163 24.4684C28.1676 24.0937 30.5988 23.1924 32.6198 21.8355C32.6198 21.8355 32.6398 21.8254 32.6598 21.8152C32.6999 21.795 32.7599 21.7849 32.8099 21.8152ZM22.995 23.9924C22.619 23.9924 22.3018 24.2818 22.2516 24.6498L22.2446 24.7519V26.0583C22.2446 26.4836 22.5848 26.8177 22.995 26.8177C23.3802 26.8177 23.6897 26.5369 23.7386 26.1625L23.7454 26.0583V24.7519C23.7454 24.3367 23.4152 23.9924 22.995 23.9924ZM24.2856 11C25.7864 11 27.017 12.1443 27.2071 13.6126H29.1881C31.2891 13.6126 33 15.3443 33 17.4709C33 17.4709 32.94 18.3711 32.92 19.6248C32.918 19.724 32.8699 19.8212 32.7909 19.88C32.3097 20.2354 31.8694 20.5291 31.8294 20.5493C30.1686 21.6632 28.2386 22.447 26.1826 22.8369C26.0485 22.8632 25.9165 22.7934 25.8484 22.6739C25.2721 21.6754 24.1956 21.0253 22.995 21.0253C21.8024 21.0253 20.7159 21.6683 20.1226 22.6678C20.0535 22.7853 19.9235 22.8531 19.7904 22.8278C17.7514 22.4369 15.8214 21.6541 14.1706 20.5594L13.2101 19.8911C13.1301 19.8405 13.08 19.7493 13.08 19.6481C13.05 19.1316 13 17.4709 13 17.4709C13 15.3443 14.7109 13.6126 16.8119 13.6126H18.7829C18.973 12.1443 20.2036 11 21.7044 11H24.2856ZM24.2856 12.519H21.7044C21.034 12.519 20.4637 12.9848 20.3037 13.6126H25.6863C25.5263 12.9848 24.956 12.519 24.2856 12.519Z" fill="#C27C4D"/>
</svg>
