<svg width="32" height="32" viewBox="0 0 32 32" fill="none" xmlns="http://www.w3.org/2000/svg">
<path opacity="0.4" d="M22.163 29.332H9.8422C6.25491 29.332 3.33594 26.4401 3.33594 22.8848V15.7793C3.33594 12.224 6.25491 9.33203 9.8422 9.33203H22.163C25.7503 9.33203 28.6693 12.224 28.6693 15.7793V22.8848C28.6693 26.4401 25.7503 29.332 22.163 29.332Z" fill="#4F84CF"/>
<path d="M21.0068 13.3327C20.4586 13.3327 20.0137 12.9011 20.0137 12.3694V8.47521C20.0137 6.33417 18.2181 4.59257 16.0119 4.59257C14.9962 4.59257 13.9303 4.98815 13.1715 5.71639C12.4114 6.44719 11.9903 7.41946 11.9863 8.45723V12.3694C11.9863 12.9011 11.5414 13.3327 10.9932 13.3327C10.4449 13.3327 10 12.9011 10 12.3694V8.47521C10.0066 6.89672 10.6369 5.44025 11.7731 4.34982C12.908 3.25682 14.3752 2.7084 16.0159 2.66602C19.3132 2.66602 22 5.272 22 8.47521V12.3694C22 12.9011 21.5551 13.3327 21.0068 13.3327Z" fill="#4F84CF"/>
</svg>
