<svg width="53" height="53" viewBox="0 0 53 53" fill="none" xmlns="http://www.w3.org/2000/svg">
<g clip-path="url(#clip0_12002_57850)">
<path fill-rule="evenodd" clip-rule="evenodd" d="M22.3501 12.2255L20.4367 14.1299L9.01025 2.6945L10.9147 0.79009C11.9668 -0.260759 13.6713 -0.260759 14.7235 0.79009L22.3501 8.40772C23.401 9.46336 23.401 11.1699 22.3501 12.2255Z" fill="#00B157"/>
<path fill-rule="evenodd" clip-rule="evenodd" d="M45.2309 52.999H6.73848C4.754 52.999 3.14526 51.3903 3.14526 49.4058C3.14526 47.4213 4.754 45.8126 6.73848 45.8126H18.4164C19.4087 45.8126 20.2131 45.0082 20.2131 44.016C20.2131 43.0238 19.4087 42.2194 18.4164 42.2194H9.4334C7.44892 42.2194 5.84018 40.6106 5.84018 38.6262V34.1346C5.84018 33.6385 6.24236 33.2363 6.73848 33.2363C7.2346 33.2363 7.63679 33.6385 7.63679 34.1346V38.6262C7.63679 39.6184 8.44116 40.4228 9.4334 40.4228H18.4164C20.4009 40.4228 22.0097 42.0315 22.0097 44.016C22.0097 46.0005 20.4009 47.6092 18.4164 47.6092H6.73848C5.74624 47.6092 4.94187 48.4136 4.94187 49.4058C4.94187 50.3981 5.74624 51.2024 6.73848 51.2024H45.2309C46.3357 51.2011 47.3279 50.5256 47.734 49.498C48.14 48.4705 47.8778 47.2992 47.0724 46.5429L41.078 40.9438C40.7153 40.6052 40.6958 40.0367 41.0344 39.674C41.373 39.3114 41.9415 39.2919 42.3042 39.6305L48.2968 45.2278C49.6428 46.4872 50.0826 48.4412 49.4061 50.1559C48.7296 51.8706 47.0742 52.9979 45.2309 52.999Z" fill="#407093"/>
<path fill-rule="evenodd" clip-rule="evenodd" d="M34.5861 14.3725C34.2229 14.3725 33.8954 14.1536 33.7564 13.818C33.6174 13.4823 33.6942 13.096 33.951 12.8391L40.2392 6.55099C40.5916 6.21056 41.1519 6.21543 41.4984 6.56194C41.8449 6.90844 41.8498 7.46872 41.5094 7.8212L35.2212 14.1093C35.0528 14.2778 34.8244 14.3725 34.5861 14.3725Z" fill="#FFB703"/>
<path fill-rule="evenodd" clip-rule="evenodd" d="M30.9928 11.6782C30.4967 11.6782 30.0945 11.276 30.0945 10.7799V2.69518C30.0945 2.19906 30.4967 1.79688 30.9928 1.79688C31.4889 1.79688 31.8911 2.19906 31.8911 2.69518V10.7799C31.8911 11.276 31.4889 11.6782 30.9928 11.6782Z" fill="#FFB703"/>
<path fill-rule="evenodd" clip-rule="evenodd" d="M45.3654 17.9665H37.2806C36.7845 17.9665 36.3823 17.5643 36.3823 17.0682C36.3823 16.5721 36.7845 16.1699 37.2806 16.1699H45.3654C45.8615 16.1699 46.2637 16.5721 46.2637 17.0682C46.2637 17.5643 45.8615 17.9665 45.3654 17.9665Z" fill="#FFB703"/>
<path fill-rule="evenodd" clip-rule="evenodd" d="M45.8507 39.5348L42.6707 42.7148C37.5952 47.7902 27.4264 41.4392 17.2666 31.2794C7.10677 21.1196 0.746764 10.9507 5.83117 5.87531L9.01117 2.69531L20.4376 14.1307L18.3625 16.2058C17.7262 16.8378 17.6533 17.8422 18.1919 18.5594C19.8634 20.7954 21.6757 22.9227 23.6176 24.9284C25.6256 26.8677 27.7528 28.6799 29.9866 30.3541C30.7003 30.8934 31.7031 30.8204 32.3312 30.1834L34.4152 28.0994L45.8507 39.5348Z" fill="#37D278"/>
<path fill-rule="evenodd" clip-rule="evenodd" d="M47.7556 37.6298L45.8512 39.5342L34.4158 28.0988L36.3202 26.1944C37.3723 25.1435 39.0768 25.1435 40.129 26.1944L47.7556 33.821C48.8064 34.8732 48.8064 36.5777 47.7556 37.6298Z" fill="#00B157"/>
</g>
<defs>
<clipPath id="clip0_12002_57850">
<rect width="53" height="53" fill="white"/>
</clipPath>
</defs>
</svg>
