<svg width="18" height="12" viewBox="0 0 18 12" fill="none" xmlns="http://www.w3.org/2000/svg">
<path d="M6.70714 1.70711C7.09766 1.31658 7.09766 0.683417 6.70714 0.292893C6.31661 -0.0976311 5.68345 -0.0976311 5.29292 0.292893L1.79333 3.79249C1.79319 3.79262 1.79346 3.79235 1.79333 3.79249L0.292922 5.29289C0.115044 5.47077 0.0181869 5.69899 0.00235071 5.93169C-0.00211034 5.99665 -0.00024397 6.06223 0.00813817 6.12747C0.0323984 6.31731 0.111095 6.50153 0.244228 6.65487C0.261487 6.67478 0.279492 6.69396 0.298191 6.71238L5.29292 11.7071C5.68345 12.0976 6.31661 12.0976 6.70714 11.7071C7.09766 11.3166 7.09766 10.6834 6.70714 10.2929L3.41424 7H17C17.5523 7 18 6.55228 18 6C18 5.44772 17.5523 5 17 5H3.41424L6.70714 1.70711Z" fill="#130F26"/>
</svg>
