<svg width="21" height="20" viewBox="0 0 21 20" fill="none" xmlns="http://www.w3.org/2000/svg">
<path d="M2.15039 4.79167C2.15039 4.18388 2.38833 3.60098 2.81188 3.17121C3.23542 2.74144 3.80987 2.5 4.40884 2.5H5.64073C5.80409 2.5 5.96075 2.56585 6.07627 2.68306C6.19178 2.80027 6.25667 2.95924 6.25667 3.125C6.25667 3.29076 6.19178 3.44973 6.07627 3.56694C5.96075 3.68415 5.80409 3.75 5.64073 3.75H4.40884C3.84218 3.75 3.38227 4.21667 3.38227 4.79167V6.04167C3.38227 6.20743 3.31738 6.3664 3.20187 6.48361C3.08636 6.60082 2.92969 6.66667 2.76633 6.66667C2.60297 6.66667 2.44631 6.60082 2.3308 6.48361C2.21528 6.3664 2.15039 6.20743 2.15039 6.04167V4.79167ZM14.4692 3.125C14.4692 2.95924 14.5341 2.80027 14.6496 2.68306C14.7651 2.56585 14.9218 2.5 15.0852 2.5H16.3171C16.916 2.5 17.4905 2.74144 17.914 3.17121C18.3376 3.60098 18.5755 4.18388 18.5755 4.79167V6.04167C18.5755 6.20743 18.5106 6.3664 18.3951 6.48361C18.2796 6.60082 18.1229 6.66667 17.9596 6.66667C17.7962 6.66667 17.6395 6.60082 17.524 6.48361C17.4085 6.3664 17.3436 6.20743 17.3436 6.04167V4.79167C17.3436 4.21667 16.8837 3.75 16.3171 3.75H15.0852C14.9218 3.75 14.7651 3.68415 14.6496 3.56694C14.5341 3.44973 14.4692 3.29076 14.4692 3.125ZM2.76633 13.3333C2.92969 13.3333 3.08636 13.3992 3.20187 13.5164C3.31738 13.6336 3.38227 13.7926 3.38227 13.9583V15.2083C3.38227 15.7833 3.84218 16.25 4.40884 16.25H5.64073C5.80409 16.25 5.96075 16.3158 6.07627 16.4331C6.19178 16.5503 6.25667 16.7092 6.25667 16.875C6.25667 17.0408 6.19178 17.1997 6.07627 17.3169C5.96075 17.4342 5.80409 17.5 5.64073 17.5H4.40884C3.80987 17.5 3.23542 17.2586 2.81188 16.8288C2.38833 16.399 2.15039 15.8161 2.15039 15.2083V13.9583C2.15039 13.7926 2.21528 13.6336 2.3308 13.5164C2.44631 13.3992 2.60297 13.3333 2.76633 13.3333ZM17.9596 13.3333C18.1229 13.3333 18.2796 13.3992 18.3951 13.5164C18.5106 13.6336 18.5755 13.7926 18.5755 13.9583V15.2083C18.5755 15.8161 18.3376 16.399 17.914 16.8288C17.4905 17.2586 16.916 17.5 16.3171 17.5H15.0852C14.9218 17.5 14.7651 17.4342 14.6496 17.3169C14.5341 17.1997 14.4692 17.0408 14.4692 16.875C14.4692 16.7092 14.5341 16.5503 14.6496 16.4331C14.7651 16.3158 14.9218 16.25 15.0852 16.25H16.3171C16.8837 16.25 17.3436 15.7833 17.3436 15.2083V13.9583C17.3436 13.7926 17.4085 13.6336 17.524 13.5164C17.6395 13.3992 17.7962 13.3333 17.9596 13.3333ZM5.2301 5.83333C5.39346 5.83333 5.55013 5.89918 5.66564 6.01639C5.78115 6.1336 5.84604 6.29257 5.84604 6.45833V13.5417C5.84604 13.7074 5.78115 13.8664 5.66564 13.9836C5.55013 14.1008 5.39346 14.1667 5.2301 14.1667C5.06674 14.1667 4.91008 14.1008 4.79456 13.9836C4.67905 13.8664 4.61416 13.7074 4.61416 13.5417V6.45833C4.61416 6.29257 4.67905 6.1336 4.79456 6.01639C4.91008 5.89918 5.06674 5.83333 5.2301 5.83333ZM9.13107 6.45833C9.13107 6.29257 9.06617 6.1336 8.95066 6.01639C8.83515 5.89918 8.67848 5.83333 8.51512 5.83333C8.35177 5.83333 8.1951 5.89918 8.07959 6.01639C7.96408 6.1336 7.89918 6.29257 7.89918 6.45833V13.5417C7.89918 13.7074 7.96408 13.8664 8.07959 13.9836C8.1951 14.1008 8.35177 14.1667 8.51512 14.1667C8.67848 14.1667 8.83515 14.1008 8.95066 13.9836C9.06617 13.8664 9.13107 13.7074 9.13107 13.5417V6.45833ZM11.8001 5.83333C11.9635 5.83333 12.1202 5.89918 12.2357 6.01639C12.3512 6.1336 12.4161 6.29257 12.4161 6.45833V13.5417C12.4161 13.7074 12.3512 13.8664 12.2357 13.9836C12.1202 14.1008 11.9635 14.1667 11.8001 14.1667C11.6368 14.1667 11.4801 14.1008 11.3646 13.9836C11.2491 13.8664 11.1842 13.7074 11.1842 13.5417V6.45833C11.1842 6.29257 11.2491 6.1336 11.3646 6.01639C11.4801 5.89918 11.6368 5.83333 11.8001 5.83333ZM15.7011 6.45833C15.7011 6.29257 15.6362 6.1336 15.5207 6.01639C15.4052 5.89918 15.2485 5.83333 15.0852 5.83333C14.9218 5.83333 14.7651 5.89918 14.6496 6.01639C14.5341 6.1336 14.4692 6.29257 14.4692 6.45833V13.5417C14.4692 13.7074 14.5341 13.8664 14.6496 13.9836C14.7651 14.1008 14.9218 14.1667 15.0852 14.1667C15.2485 14.1667 15.4052 14.1008 15.5207 13.9836C15.6362 13.8664 15.7011 13.7074 15.7011 13.5417V6.45833Z" fill="#9C9898"/>
</svg>
