<svg width="24" height="24" viewBox="0 0 24 24" fill="none" xmlns="http://www.w3.org/2000/svg">
<path d="M22 9V7C22 6.46957 21.7893 5.96086 21.4142 5.58579C21.0391 5.21071 20.5304 5 20 5H4C3.46957 5 2.96086 5.21071 2.58579 5.58579C2.21071 5.96086 2 6.46957 2 7V17C2 17.5304 2.21071 18.0391 2.58579 18.4142C2.96086 18.7893 3.46957 19 4 19H12M22 9H6M22 9V13M16 20.95C15.3502 20.287 14.9904 19.393 14.9998 18.4646C15.0045 18.005 15.0996 17.5508 15.2798 17.1279C15.46 16.705 15.7217 16.3217 16.05 16C16.3783 15.6783 16.7668 15.4243 17.1932 15.2527C17.6196 15.0811 18.0757 14.9952 18.5354 14.9998C18.995 15.0045 19.4492 15.0996 19.8721 15.2798C20.295 15.46 20.6783 15.7217 21 16.05L16 20.95ZM16 20.95C16.32 21.2858 16.7035 21.5547 17.1282 21.741C17.553 21.9273 18.0106 22.0273 18.4744 22.0352C18.9381 22.0431 19.3988 21.9587 19.8297 21.787C20.2606 21.6153 20.653 21.3597 20.9842 21.035C21.3155 20.7102 21.5788 20.3229 21.759 19.8955C21.9392 19.4681 22.0327 19.0092 22.034 18.5454C22.0353 18.0815 21.9443 17.6221 21.7665 17.1937C21.5886 16.7653 21.3274 16.3765 20.998 16.05" stroke="#4F84CF" stroke-width="1.5" stroke-linecap="round" stroke-linejoin="round"/>
</svg>
