<svg width="53" height="54" viewBox="0 0 53 54" fill="none" xmlns="http://www.w3.org/2000/svg">
<g clip-path="url(#clip0_12002_57880)">
<path d="M16.0121 28.3652L13.3899 39.6818L19.6832 41.3777L26.0418 36.4289L16.0121 28.3652Z" fill="#233863"/>
<path d="M7.11865 50.4385L12.3888 38.4646C13.0908 36.8715 14.6672 35.8428 16.4083 35.8418C18.3923 35.8428 20.1295 37.1728 20.6482 39.0877L24.119 51.9244L7.11865 50.4385Z" fill="#CFE1F7"/>
<path d="M8.08012 49.541H26.2381C28.4826 49.5406 30.3024 51.3599 30.3028 53.6045V53.6051H4.01538C4.01538 51.3606 5.83499 49.541 8.0795 49.541H8.08012Z" fill="#EAF3FA"/>
<path d="M16.5372 41.3801C17.4738 41.3801 18.2331 40.6208 18.2331 39.6842C18.2331 38.7476 17.4738 37.9883 16.5372 37.9883C15.6006 37.9883 14.8413 38.7476 14.8413 39.6842C14.8413 40.6208 15.6006 41.3801 16.5372 41.3801Z" fill="#233863"/>
<path d="M45.9123 36.7733C36.9025 43.4337 23.6567 40.8219 16.2821 30.9189C8.88741 21.03 10.1878 7.57287 19.1324 0.849762C21.3033 -0.775713 29.0651 5.9474 36.47 15.869C43.8673 25.7915 48.0937 35.1478 45.9123 36.7733Z" fill="#EAF3FA"/>
<path d="M45.9096 36.7725C44.3733 37.9146 40.0312 34.8755 35.0015 29.4851C34.6874 29.1446 34.3604 28.7968 34.0462 28.4361C32.2559 26.4526 30.4062 24.1943 28.5822 21.7428C26.7318 19.2577 25.0753 16.8132 23.6792 14.5156C23.4252 14.1084 23.1847 13.707 22.9507 13.3063C19.2507 6.98711 17.5934 1.99555 19.1375 0.848386C20.9472 -0.508929 26.6452 3.9411 32.775 11.2154C33.0956 11.5894 33.4161 11.9772 33.7367 12.3789C34.6519 13.488 35.5601 14.6565 36.4687 15.8723C37.3503 17.0546 38.183 18.2212 38.9667 19.3721C39.2537 19.7929 39.5342 20.2124 39.807 20.6279C45.0675 28.63 47.7394 35.41 45.9096 36.7725Z" fill="#CFE1F7"/>
<path d="M46.5119 8.29883L39.8121 20.6288L35.0028 29.4835C34.6887 29.143 34.3616 28.7952 34.0475 28.4345L38.9707 19.3704L43.9519 10.2015L33.74 12.379L23.6806 14.5164C23.4266 14.1093 23.1862 13.7078 22.9521 13.3072L32.7763 11.2163L46.5119 8.29883Z" fill="#233863"/>
<path d="M45.2325 13.0026C47.3053 13.0026 48.9857 11.3222 48.9857 9.24933C48.9857 7.17647 47.3053 5.49609 45.2325 5.49609C43.1596 5.49609 41.4792 7.17647 41.4792 9.24933C41.4792 11.3222 43.1596 13.0026 45.2325 13.0026Z" fill="#DC0428"/>
</g>
<defs>
<clipPath id="clip0_12002_57880">
<rect width="53" height="53" fill="white" transform="translate(0 0.605469)"/>
</clipPath>
</defs>
</svg>
