<svg width="30" height="37" viewBox="0 0 30 37" fill="none" xmlns="http://www.w3.org/2000/svg">
<path d="M28.6583 11.3848V36.8735H7.31255L1.3418 30.9028V11.3848L15 15.287L28.6583 11.3848Z" fill="#EDEDED"/>
<g style="mix-blend-mode:overlay" opacity="0.2">
<path d="M1.3418 11.3848V30.9028L3.5918 33.1528V12.0275L1.3418 11.3848Z" fill="white"/>
</g>
<g style="mix-blend-mode:multiply" opacity="0.15">
<path d="M26.4082 12.0275V35.3735H5.8125L7.3125 36.8735H28.6582V11.3848L26.4082 12.0275Z" fill="black"/>
</g>
<path d="M28.6587 1.42772H10.9467L9.17594 0.126465H0.367188V11.1057L1.34219 11.3847L15.0004 15.287L28.6587 11.3847L29.6337 11.1057V1.42772H28.6587Z" fill="#0EAF05"/>
<g style="mix-blend-mode:overlay" opacity="0.15">
<path d="M0.367188 0.126465V11.1057L1.34219 11.3847L2.61719 11.7485V0.126465H0.367188Z" fill="white"/>
</g>
<g style="mix-blend-mode:multiply" opacity="0.15">
<path d="M28.6587 1.42773H27.3837V10.3557L26.4087 10.6347L12.7504 14.537L0.367188 10.9985V11.1057L1.34219 11.3847L15.0004 15.287L28.6587 11.3847L29.6337 11.1057V1.42773H28.6587Z" fill="black"/>
</g>
<path d="M1.3418 30.9028H7.31255V36.8736L1.3418 30.9028Z" fill="#0EAF05"/>
<path d="M15.0012 25.1419C14.9317 25.1422 14.8625 25.1327 14.7957 25.1134L5.89169 22.5702C5.79679 22.5433 5.70812 22.498 5.63074 22.4368C5.55336 22.3757 5.48878 22.2999 5.44069 22.2137C5.3926 22.1276 5.36194 22.0329 5.35047 21.9349C5.33899 21.837 5.34693 21.7377 5.37382 21.6428C5.4007 21.5479 5.44602 21.4592 5.50718 21.3819C5.56833 21.3045 5.64413 21.2399 5.73025 21.1918C5.81636 21.1437 5.91111 21.1131 6.00907 21.1016C6.10703 21.0901 6.20629 21.098 6.30119 21.1249L15.0012 23.6119L23.7012 21.1249C23.7966 21.0956 23.8969 21.0855 23.9962 21.0954C24.0955 21.1053 24.1919 21.135 24.2796 21.1826C24.3674 21.2302 24.4447 21.2948 24.5071 21.3727C24.5695 21.4506 24.6158 21.5402 24.6431 21.6362C24.6705 21.7322 24.6784 21.8327 24.6664 21.9318C24.6544 22.0309 24.6228 22.1266 24.5734 22.2133C24.5239 22.3 24.4576 22.376 24.3785 22.4367C24.2993 22.4975 24.2087 22.5418 24.1122 22.5672L15.2067 25.1134C15.1399 25.1327 15.0707 25.1422 15.0012 25.1419ZM15.0012 20.5902C14.9317 20.5902 14.8625 20.5804 14.7957 20.5609L5.89169 18.0177C5.79514 17.9923 5.70462 17.948 5.62543 17.8872C5.54624 17.8265 5.47998 17.7505 5.43053 17.6638C5.38108 17.5771 5.34944 17.4814 5.33746 17.3823C5.32547 17.2832 5.33339 17.1827 5.36075 17.0867C5.3881 16.9907 5.43435 16.9011 5.49677 16.8232C5.55919 16.7453 5.63653 16.6807 5.72426 16.6331C5.81199 16.5855 5.90834 16.5558 6.00766 16.5459C6.10699 16.536 6.20729 16.5461 6.30269 16.5754L15.0012 19.0602L23.7012 16.5754C23.7966 16.5461 23.8969 16.536 23.9962 16.5459C24.0955 16.5558 24.1919 16.5855 24.2796 16.6331C24.3674 16.6807 24.4447 16.7453 24.5071 16.8232C24.5695 16.9011 24.6158 16.9907 24.6431 17.0867C24.6705 17.1827 24.6784 17.2832 24.6664 17.3823C24.6544 17.4814 24.6228 17.5771 24.5734 17.6638C24.5239 17.7505 24.4576 17.8265 24.3785 17.8872C24.2993 17.948 24.2087 17.9923 24.1122 18.0177L15.2067 20.5609C15.1399 20.5804 15.0707 20.5902 15.0012 20.5902ZM15.0012 29.6952C14.9317 29.6952 14.8625 29.6854 14.7957 29.6659L5.89169 27.1249C5.79514 27.0996 5.70462 27.0552 5.62543 26.9945C5.54624 26.9337 5.47998 26.8577 5.43053 26.771C5.38108 26.6843 5.34944 26.5886 5.33746 26.4895C5.32547 26.3904 5.33339 26.2899 5.36075 26.1939C5.3881 26.0979 5.43435 26.0084 5.49677 25.9305C5.55919 25.8526 5.63653 25.7879 5.72426 25.7403C5.81199 25.6927 5.90834 25.6631 6.00766 25.6532C6.10699 25.6433 6.20729 25.6533 6.30269 25.6827L15.0012 28.1652L23.7012 25.6812C23.7966 25.6518 23.8969 25.6418 23.9962 25.6517C24.0955 25.6616 24.1919 25.6912 24.2796 25.7388C24.3674 25.7864 24.4447 25.8511 24.5071 25.929C24.5695 26.0069 24.6158 26.0964 24.6431 26.1924C24.6705 26.2884 24.6784 26.3889 24.6664 26.488C24.6544 26.5871 24.6228 26.6828 24.5734 26.7695C24.5239 26.8562 24.4576 26.9322 24.3785 26.993C24.2993 27.0537 24.2087 27.0981 24.1122 27.1234L15.2082 29.6659C15.1409 29.6855 15.0712 29.6954 15.0012 29.6952Z" fill="#C6C6C6"/>
<path d="M10.3508 10.2455C9.98164 10.2576 9.61552 10.1749 9.28731 10.0055C9.00588 9.85283 8.76693 9.63244 8.59206 9.36425C8.41409 9.08375 8.28713 8.77397 8.21706 8.44925C8.06306 7.74633 8.06306 7.01841 8.21706 6.3155C8.28681 5.98865 8.41567 5.67729 8.59731 5.39675C8.77393 5.12895 9.01373 4.90873 9.29556 4.7555C9.62416 4.58638 9.99043 4.50378 10.3598 4.5155C10.7808 4.50666 11.196 4.6141 11.5598 4.826C11.745 4.93962 11.9005 5.09567 12.0136 5.28125C12.1611 5.5266 12.2734 5.79143 12.3473 6.068L11.2523 6.3305C11.183 6.11986 11.0709 5.92581 10.9231 5.7605C10.8445 5.68288 10.7505 5.62271 10.6471 5.58394C10.5437 5.54517 10.4333 5.52866 10.3231 5.5355C10.1856 5.53256 10.0497 5.56511 9.92856 5.63C9.81791 5.69202 9.72198 5.77721 9.64731 5.87975C9.57029 5.98794 9.5087 6.10633 9.46431 6.2315C9.41635 6.36282 9.37997 6.49809 9.35556 6.63575C9.33112 6.77193 9.31459 6.90941 9.30606 7.0475C9.29931 7.184 9.29556 7.30775 9.29556 7.4225C9.26795 7.89105 9.3582 8.35906 9.55806 8.78375C9.63292 8.92725 9.74799 9.04582 9.88919 9.12494C10.0304 9.20406 10.1916 9.24031 10.3531 9.22925C10.4807 9.23267 10.6079 9.21232 10.7281 9.16925C10.8273 9.13163 10.9179 9.07422 10.9943 9.0005C11.0729 8.92354 11.141 8.83654 11.1968 8.74175C11.2602 8.63493 11.3178 8.52477 11.3693 8.41175L12.4943 8.70425C12.4022 8.95458 12.28 9.19282 12.1306 9.41375C12.0047 9.59433 11.8487 9.75188 11.6693 9.8795C11.2798 10.1384 10.818 10.2666 10.3508 10.2455ZM15.1958 10.2455C14.7795 10.2426 14.3712 10.1315 14.0108 9.923C13.8089 9.81573 13.6285 9.67236 13.4783 9.5C13.312 9.30068 13.1777 9.07676 13.0801 8.83625L14.0783 8.40125C14.1346 8.52441 14.1995 8.64346 14.2726 8.7575C14.3384 8.86048 14.4196 8.95279 14.5133 9.03125C14.6057 9.10814 14.7111 9.16783 14.8246 9.2075C14.9536 9.25199 15.0894 9.27356 15.2258 9.27125C15.3291 9.27148 15.4321 9.26143 15.5333 9.24125C15.6271 9.22364 15.7171 9.18935 15.7988 9.14C15.8767 9.09273 15.9404 9.02537 15.9833 8.945C16.0312 8.84842 16.0544 8.74148 16.0508 8.63375C16.048 8.53811 16.0202 8.44487 15.9702 8.36329C15.9202 8.28172 15.8498 8.21465 15.7658 8.16875C15.5282 8.0156 15.2741 7.8898 15.0083 7.79375C14.5426 7.63535 14.1046 7.40506 13.7101 7.11125C13.5599 6.98052 13.4414 6.81742 13.3635 6.63424C13.2855 6.45106 13.2502 6.25258 13.2601 6.05375C13.2564 5.84191 13.3019 5.63211 13.393 5.44082C13.4841 5.24953 13.6183 5.08196 13.7851 4.95125C14.1565 4.65401 14.6221 4.49968 15.0976 4.51625C15.515 4.5103 15.9257 4.62207 16.2826 4.83875C16.4598 4.94582 16.6172 5.08286 16.7476 5.24375C16.8984 5.43586 17.0221 5.64786 17.1151 5.87375L16.0126 6.21125C15.9355 6.01495 15.8194 5.83635 15.6713 5.68625C15.5111 5.54585 15.3019 5.47441 15.0893 5.4875C15.0076 5.48786 14.9262 5.49666 14.8463 5.51375C14.7676 5.52993 14.6918 5.55773 14.6213 5.59625C14.5507 5.63614 14.4924 5.69465 14.4527 5.7654C14.413 5.83615 14.3935 5.91643 14.3963 5.9975C14.3982 6.07602 14.4244 6.15203 14.4713 6.215C14.5357 6.30022 14.6189 6.3695 14.7143 6.4175C14.9733 6.56082 15.2444 6.68128 15.5243 6.7775C15.9359 6.91474 16.3215 7.12009 16.6651 7.385C16.8419 7.51895 16.983 7.69441 17.0758 7.89586C17.1687 8.09731 17.2105 8.31855 17.1976 8.54C17.2113 8.77718 17.1712 9.01441 17.0803 9.23391C16.9894 9.45342 16.85 9.64951 16.6726 9.8075C16.2476 10.1235 15.7244 10.2786 15.1958 10.2455ZM19.3208 10.1705L17.8426 4.5905H19.0351L19.9351 8.348L20.8801 4.5905H22.0801L20.5951 10.1705H19.3208Z" fill="white"/>
</svg>
