<svg width="53" height="53" viewBox="0 0 53 53" fill="none" xmlns="http://www.w3.org/2000/svg">
<g clip-path="url(#clip0_12002_57866)">
<path d="M53 26.5C53 41.1356 41.1356 53 26.5 53C11.8644 53 0 41.1356 0 26.5C0 11.8644 11.8644 0 26.5 0C41.1356 0 53 11.8644 53 26.5Z" fill="#9AE7FD"/>
<path d="M47.9277 31.5723C47.9277 37.5968 45.916 43.1507 42.5296 47.6019C38.0784 50.9883 32.5245 53 26.5 53C11.8644 53 0 41.1356 0 26.5C0 20.4755 2.01172 14.9216 5.39813 10.4704C9.8493 7.08399 15.4032 5.07227 21.4277 5.07227C26.5495 5.07227 31.3308 6.52676 35.3841 9.04312C35.5789 8.90783 35.8152 8.82802 36.0703 8.82802C36.7358 8.82802 37.2754 9.36754 37.2754 10.033C37.2754 10.1277 37.2633 10.2193 37.2427 10.3076C43.7274 15.1381 47.9277 22.8644 47.9277 31.5723Z" fill="#4391A6"/>
<path d="M27.8881 52.9628C27.4283 52.9865 26.9658 53 26.5 53C11.8644 53 0 41.1356 0 26.5C0 20.4755 2.01172 14.9216 5.39813 10.4704C9.8493 7.08399 15.4032 5.07227 21.4277 5.07227C21.8997 5.07227 22.3686 5.0851 22.8345 5.10943C22.7796 5.11222 22.7248 5.11522 22.67 5.11843C12.1133 5.72897 3.59303 14.0872 2.85952 24.636C2.81666 25.2518 2.79492 25.8733 2.79492 26.5C2.79492 40.6636 13.9067 52.2314 27.8881 52.9628Z" fill="#407093"/>
<path d="M43.7871 39.75C43.7871 40.6075 43.0919 41.3027 42.2344 41.3027H37.0586C36.2011 41.3027 35.5059 40.6075 35.5059 39.75C35.5059 38.8925 36.2011 38.1973 37.0586 38.1973H42.2344C43.0919 38.1973 43.7871 38.8925 43.7871 39.75ZM9.10937 28.8809H7.55664C6.41321 28.8809 5.48633 27.954 5.48633 26.8105V25.2578C5.48633 23.2569 3.86424 21.6348 1.86328 21.6348H0.447291C0.154549 23.212 0 24.8378 0 26.5C0 34.2644 3.33941 41.2487 8.66012 46.0955C9.84703 45.5005 10.6621 44.2735 10.6621 42.8555C10.6621 40.8545 9.04002 39.2324 7.03906 39.2324H6.52148C5.66396 39.2324 4.96875 38.5372 4.96875 37.6797C4.96875 36.8222 5.66396 36.1269 6.52148 36.1269H9.10937C11.1103 36.1269 12.7324 34.5049 12.7324 32.5039C12.7324 30.5029 11.1103 28.8809 9.10937 28.8809ZM36.541 46.4785C35.3976 46.4785 34.4707 45.5516 34.4707 44.4082V42.8555C34.4707 40.8545 32.8486 39.2324 30.8477 39.2324H18.4258C16.4248 39.2324 14.8027 40.8545 14.8027 42.8555C14.8027 44.8564 16.4248 46.4785 18.4258 46.4785H19.9785C21.1219 46.4785 22.0488 47.4054 22.0488 48.5488V50.1016C22.0488 51.1749 22.516 52.1388 23.2576 52.8023C24.3204 52.932 25.4022 53 26.5 53C32.5234 53 38.0763 50.9891 42.5269 47.6038C42.7719 47.2819 43.0103 46.9546 43.2406 46.6213C42.9211 46.5289 42.5837 46.4785 42.2344 46.4785H36.541ZM21.5312 31.9863H33.9531C35.9541 31.9863 37.5762 30.3642 37.5762 28.3633C37.5762 26.3624 35.9542 24.7403 33.9533 24.7402H34.9883C34.1308 24.7402 33.4355 24.045 33.4355 23.1875C33.4355 22.33 34.1308 21.6348 34.9883 21.6348H45.9994C44.9239 18.9779 43.4304 16.5355 41.5998 14.3887H25.6719C23.6709 14.3887 22.0488 16.0108 22.0488 18.0117C22.0488 20.0127 23.6709 21.6348 25.6719 21.6348H28.7773C29.6349 21.6348 30.3301 22.33 30.3301 23.1875C30.3301 24.045 29.635 24.7402 28.7774 24.7402H21.5312C19.5303 24.7402 17.9082 26.3623 17.9082 28.3633C17.9082 30.3642 19.5303 31.9863 21.5312 31.9863ZM10.1445 14.3887H15.3203C16.1778 14.3887 16.873 13.6935 16.873 12.8359C16.873 11.9784 16.1778 11.2832 15.3203 11.2832H10.1445C9.28701 11.2832 8.5918 11.9784 8.5918 12.8359C8.5918 13.6935 9.28701 14.3887 10.1445 14.3887Z" fill="#9BD04C"/>
<path d="M5.99811 39.1401C7.11836 41.2004 8.50381 43.0955 10.1088 44.7796C9.75656 45.34 9.25513 45.7972 8.66012 46.0955C3.33941 41.2487 0 34.2644 0 26.5C0 24.8378 0.154549 23.212 0.447291 21.6348H1.86328C2.33417 21.6348 2.78354 21.7255 3.19625 21.889C2.93332 23.3866 2.79492 24.927 2.79492 26.5C2.79492 30.3076 3.59955 33.9267 5.04546 37.1991C4.99618 37.3505 4.96875 37.5118 4.96875 37.6797C4.96875 38.3533 5.39855 38.9251 5.99811 39.1401ZM22.7008 52.1727C22.8619 52.4033 23.0484 52.6151 23.2576 52.8023C24.3204 52.932 25.4022 53 26.5 53C26.9658 53 27.4283 52.9865 27.8883 52.9628C26.1069 52.8696 24.372 52.6007 22.7008 52.1727Z" fill="#80BE1C"/>
<path d="M24.8437 16.5625C24.8437 17.7059 23.9169 18.6328 22.7734 18.6328C21.63 18.6328 20.7031 17.7059 20.7031 16.5625C20.7031 15.4191 21.63 14.4922 22.7734 14.4922C23.9169 14.4922 24.8437 15.4191 24.8437 16.5625ZM11.3867 14.4922C11.3867 13.3488 10.4598 12.4219 9.31641 12.4219C8.17297 12.4219 7.24609 13.3488 7.24609 14.4922C7.24609 15.6356 8.17297 16.5625 9.31641 16.5625C10.4598 16.5625 11.3867 15.6356 11.3867 14.4922ZM10.3516 26.9141C9.20813 26.9141 8.28125 27.8409 8.28125 28.9844C8.28125 30.1278 9.20813 31.0547 10.3516 31.0547C11.495 31.0547 12.4219 30.1278 12.4219 28.9844C12.4219 27.8409 11.495 26.9141 10.3516 26.9141ZM36.2305 23.8086C35.087 23.8086 34.1602 24.7355 34.1602 25.8789C34.1602 27.0223 35.087 27.9492 36.2305 27.9492C37.3739 27.9492 38.3008 27.0223 38.3008 25.8789C38.3008 24.7355 37.3739 23.8086 36.2305 23.8086ZM22.7734 31.0547C22.7734 29.9113 21.8466 28.9844 20.7031 28.9844C19.5597 28.9844 18.6328 29.9113 18.6328 31.0547C18.6328 32.1981 19.5597 33.125 20.7031 33.125C21.8466 33.125 22.7734 32.1981 22.7734 31.0547ZM22.7734 45.5469C21.63 45.5469 20.7031 46.4738 20.7031 47.6172C20.7031 48.7606 21.63 49.6875 22.7734 49.6875C23.9169 49.6875 24.8437 48.7606 24.8437 47.6172C24.8437 46.4738 23.9169 45.5469 22.7734 45.5469Z" fill="#FFF587"/>
<path d="M4.94189 41.9101C4.95007 41.9215 4.95856 41.9327 4.96674 41.9441C4.96653 41.9443 4.96643 41.9446 4.96622 41.9448C4.95804 41.9333 4.95018 41.9215 4.94189 41.9101ZM47.3955 10.2C47.7646 8.45254 47.5325 7.15072 46.6911 6.30945C45.8884 5.50689 44.6666 5.25877 43.0384 5.55824C42.9602 5.57263 42.6194 5.6424 42.5281 5.66434C40.6376 6.11909 38.2493 7.24616 35.3789 9.03864C36.0234 9.43852 36.6501 9.86438 37.2562 10.3164C40.8887 8.14126 43.0917 7.50174 44.2644 7.50174C44.5543 7.50174 44.7799 7.5416 44.9501 7.60609C44.973 7.61478 45.0778 7.66354 45.081 7.6653C45.1392 7.69791 45.1878 7.73424 45.2271 7.77347C45.2802 7.82658 45.3282 7.89697 45.3685 7.98527C45.3797 8.01145 45.3907 8.03868 45.4013 8.06787C45.4014 8.06797 45.4015 8.06808 45.4016 8.06818C45.7383 9.00386 45.3267 11.5868 42.0609 16.7577C38.7826 21.9484 33.6683 28.1158 27.6599 34.1242C21.9429 39.8413 16.0823 44.7476 11.0557 48.0343C11.6647 48.4719 12.2931 48.8838 12.9392 49.2694C17.9095 45.9189 23.591 41.1212 29.124 35.5881C35.2376 29.4745 40.4536 23.1797 43.8114 17.8632C45.7264 14.8311 46.9085 12.3296 47.3584 10.3705C47.3587 10.3708 47.359 10.3712 47.3593 10.3715C47.3633 10.354 47.3893 10.2408 47.3975 10.2023C47.3967 10.2015 47.3961 10.2007 47.3955 10.2Z" fill="#407093"/>
</g>
<defs>
<clipPath id="clip0_12002_57866">
<rect width="53" height="53" fill="white"/>
</clipPath>
</defs>
</svg>
