<svg width="16" height="17" viewBox="0 0 16 17" fill="none" xmlns="http://www.w3.org/2000/svg">
<path d="M2 4.5H3.33333H14" stroke="#ED1C25" stroke-width="1.2" stroke-linecap="round" stroke-linejoin="round"/>
<path d="M5.33398 4.49992V3.16659C5.33398 2.81296 5.47446 2.47382 5.72451 2.22378C5.97456 1.97373 6.3137 1.83325 6.66732 1.83325H9.33398C9.68761 1.83325 10.0267 1.97373 10.2768 2.22378C10.5268 2.47382 10.6673 2.81296 10.6673 3.16659V4.49992M12.6673 4.49992V13.8333C12.6673 14.1869 12.5268 14.526 12.2768 14.7761C12.0267 15.0261 11.6876 15.1666 11.334 15.1666H4.66732C4.3137 15.1666 3.97456 15.0261 3.72451 14.7761C3.47446 14.526 3.33398 14.1869 3.33398 13.8333V4.49992H12.6673Z" stroke="#ED1C25" stroke-width="1.2" stroke-linecap="round" stroke-linejoin="round"/>
<path d="M9.33398 7.83325V11.8333" stroke="#ED1C25" stroke-width="1.2" stroke-linecap="round" stroke-linejoin="round"/>
<path d="M6.66602 7.83325V11.8333" stroke="#ED1C25" stroke-width="1.2" stroke-linecap="round" stroke-linejoin="round"/>
</svg>
