<svg width="54" height="53" viewBox="0 0 54 53" fill="none" xmlns="http://www.w3.org/2000/svg">
<g clip-path="url(#clip0_12002_57926)">
<path d="M44.0798 17.5566V29.6057C44.0798 34.6367 35.2911 37.3694 26.9998 37.3694C18.7084 37.3694 9.91968 34.6367 9.91968 29.6057V17.5566C9.91968 16.718 10.6026 16.0039 11.4724 16.0039H42.5271C43.3969 16.0039 44.0798 16.718 44.0798 17.5566Z" fill="#23407A"/>
<path d="M44.0798 17.5566V29.6057C44.0798 34.6367 35.2911 37.3694 26.9998 37.3694V16.0039H42.5271C43.3969 16.0039 44.0798 16.718 44.0798 17.5566Z" fill="#23407A"/>
<path d="M53.4995 14.0781C53.4995 14.7304 53.096 15.3203 52.5056 15.5375L27.5583 24.8539C27.3723 24.9161 27.1859 24.9473 26.9995 24.9473C26.8131 24.9473 26.6267 24.9161 26.4407 24.8539L1.49341 15.5375V12.6184L26.4407 3.30199C26.6267 3.24012 26.8131 3.20898 26.9995 3.20898C27.1859 3.20898 27.3723 3.24012 27.5583 3.30199L52.5056 12.6184C53.096 12.8359 53.4995 13.4259 53.4995 14.0781Z" fill="#2D3A64"/>
<path d="M53.4998 14.0781C53.4998 14.7304 53.0962 15.3203 52.5058 15.5375L27.5586 24.8539C27.3726 24.9161 27.1862 24.9473 26.9998 24.9473V3.20898C27.1862 3.20898 27.3726 3.24012 27.5586 3.30199L52.5058 12.6184C53.0962 12.8359 53.4998 13.4259 53.4998 14.0781Z" fill="#2D3A64"/>
<path d="M28.5525 14.0781C28.5525 14.9475 27.8695 15.6309 26.9998 15.6309H3.60522V38.6732L6.61729 47.7413C6.8971 48.5484 6.46201 49.4493 5.65491 49.6976C4.81628 49.9774 3.94691 49.5423 3.69863 48.7348L3.60522 48.4558C3.48109 49.2011 2.82886 49.791 2.05249 49.791C1.18272 49.791 0.499756 49.1077 0.499756 48.2383V14.0781C0.499756 13.2084 1.18272 12.5254 2.05249 12.5254H26.9998C27.8695 12.5254 28.5525 13.2084 28.5525 14.0781Z" fill="#FFB703"/>
</g>
<defs>
<clipPath id="clip0_12002_57926">
<rect width="53" height="53" fill="white" transform="translate(0.499756)"/>
</clipPath>
</defs>
</svg>
