<svg width="25" height="25" viewBox="0 0 25 25" fill="none" xmlns="http://www.w3.org/2000/svg">
<path d="M16.2203 20.4873C15.9664 20.4873 15.7028 20.4776 15.4196 20.4483C14.9118 20.4092 14.3357 20.3116 13.7401 20.1651L12.0997 19.7745C7.59822 18.7102 6.12379 16.3277 7.17835 11.836L8.13527 7.74468C8.35009 6.81705 8.60397 6.06519 8.91643 5.44026C10.5959 1.97386 13.8084 2.28633 16.0933 2.82337L17.724 3.20419C20.0089 3.74124 21.454 4.59075 22.2645 5.88943C23.0652 7.1881 23.1921 8.85783 22.6551 11.1427L21.6982 15.2243C20.8584 18.7981 19.1106 20.4873 16.2203 20.4873ZM13.5936 3.95606C11.963 3.95606 10.9279 4.62981 10.2346 6.07495C9.98076 6.60223 9.75618 7.25645 9.56089 8.07667L8.60397 12.168C7.73493 15.859 8.74067 17.4701 12.4316 18.3489L14.0721 18.7395C14.5994 18.8664 15.0974 18.9446 15.5465 18.9836C18.2025 19.2473 19.5207 18.0853 20.2628 14.8923L21.2197 10.8107C21.6591 8.92618 21.6005 7.60798 21.0146 6.66082C20.4288 5.71366 19.2766 5.06921 17.3822 4.62981L15.7516 4.24899C14.9411 4.0537 14.2186 3.95606 13.5936 3.95606Z" fill="#002766"/>
<path d="M8.91643 22.5086C6.40696 22.5086 4.80558 21.0049 3.78031 17.8314L2.53045 13.9744C1.1439 9.67806 2.38399 7.25647 6.66083 5.86991L8.20362 5.37192C8.71138 5.21569 9.09219 5.10828 9.43395 5.04969C9.71712 4.99111 9.99053 5.09852 10.1565 5.3231C10.3225 5.54768 10.3518 5.84062 10.2346 6.09449C9.98076 6.61201 9.75618 7.26623 9.57065 8.08645L8.61373 12.1778C7.74469 15.8687 8.75044 17.4799 12.4414 18.3587L14.0818 18.7493C14.6091 18.8762 15.1071 18.9543 15.5563 18.9934C15.8688 19.0227 16.1226 19.2375 16.2105 19.5402C16.2886 19.8429 16.1715 20.1554 15.9176 20.3311C15.2731 20.7705 14.4627 21.1416 13.4374 21.4736L11.8946 21.9813C10.7717 22.3328 9.79524 22.5086 8.91643 22.5086ZM8.37938 6.85612L7.11977 7.26623C3.63384 8.38915 2.80386 10.0296 3.92678 13.5253L5.17663 17.3822C6.30931 20.8682 7.94975 21.7079 11.4357 20.585L12.9785 20.0772C13.037 20.0577 13.0859 20.0382 13.1445 20.0187L12.1094 19.7745C7.60799 18.7102 6.13355 16.3277 7.18812 11.836L8.14504 7.74469C8.21339 7.43223 8.2915 7.12953 8.37938 6.85612Z" fill="#002766"/>
<path d="M17.8607 11.0451C17.8021 11.0451 17.7435 11.0353 17.6752 11.0255L12.9394 9.82449C12.5488 9.72685 12.3145 9.3265 12.4121 8.93592C12.5098 8.54534 12.9101 8.31099 13.3007 8.40864L18.0365 9.60967C18.427 9.70732 18.6614 10.1077 18.5637 10.4982C18.4856 10.8205 18.1829 11.0451 17.8607 11.0451Z" fill="#002766"/>
<path d="M14.9997 14.3455C14.9411 14.3455 14.8825 14.3357 14.8142 14.3259L11.9727 13.6034C11.5821 13.5057 11.3478 13.1054 11.4454 12.7148C11.5431 12.3242 11.9434 12.0899 12.334 12.1875L15.1755 12.9101C15.5661 13.0077 15.8004 13.4081 15.7028 13.7986C15.6246 14.1306 15.3317 14.3455 14.9997 14.3455Z" fill="#002766"/>
</svg>
