<svg width="24" height="24" viewBox="0 0 24 24" fill="none" xmlns="http://www.w3.org/2000/svg">
<path d="M5.25 5C4.38805 5 3.5614 5.34241 2.9519 5.9519C2.34241 6.5614 2 7.38805 2 8.25V15.75C2 16.612 2.34241 17.4386 2.9519 18.0481C3.5614 18.6576 4.38805 19 5.25 19H11.174C11.0581 18.5084 10.9997 18.0051 11 17.5H5.25C4.78587 17.5 4.34075 17.3156 4.01256 16.9874C3.68437 16.6592 3.5 16.2141 3.5 15.75V11H22V8.25C22 7.8232 21.9159 7.40059 21.7526 7.00628C21.5893 6.61197 21.3499 6.25369 21.0481 5.9519C20.7463 5.65011 20.388 5.41072 19.9937 5.24739C19.5994 5.08406 19.1768 5 18.75 5H5.25ZM20.5 8.25V9.5H3.5V8.25C3.5 7.284 4.284 6.5 5.25 6.5H18.75C19.716 6.5 20.5 7.284 20.5 8.25ZM17.5 12C18.9587 12 20.3576 12.5795 21.3891 13.6109C22.4205 14.6424 23 16.0413 23 17.5C23 18.9587 22.4205 20.3576 21.3891 21.3891C20.3576 22.4205 18.9587 23 17.5 23C16.0413 23 14.6424 22.4205 13.6109 21.3891C12.5795 20.3576 12 18.9587 12 17.5C12 16.0413 12.5795 14.6424 13.6109 13.6109C14.6424 12.5795 16.0413 12 17.5 12ZM19.5 17.5H17.5V15C17.5 14.8674 17.4473 14.7402 17.3536 14.6464C17.2598 14.5527 17.1326 14.5 17 14.5C16.8674 14.5 16.7402 14.5527 16.6464 14.6464C16.5527 14.7402 16.5 14.8674 16.5 15V18C16.5 18.1326 16.5527 18.2598 16.6464 18.3536C16.7402 18.4473 16.8674 18.5 17 18.5H19.5C19.6326 18.5 19.7598 18.4473 19.8536 18.3536C19.9473 18.2598 20 18.1326 20 18C20 17.8674 19.9473 17.7402 19.8536 17.6464C19.7598 17.5527 19.6326 17.5 19.5 17.5Z" fill="#4F84CF"/>
</svg>
