<svg width="24" height="24" viewBox="0 0 24 24" fill="none" xmlns="http://www.w3.org/2000/svg">
<path d="M22 9V7C22 6.46957 21.7893 5.96086 21.4142 5.58579C21.0391 5.21071 20.5304 5 20 5H4C3.46957 5 2.96086 5.21071 2.58579 5.58579C2.21071 5.96086 2 6.46957 2 7V17C2 17.5304 2.21071 18.0391 2.58579 18.4142C2.96086 18.7893 3.46957 19 4 19H14M22 9H6M22 9V13M21.167 18.5H21.4C21.5591 18.5 21.7117 18.5632 21.8243 18.6757C21.9368 18.7883 22 18.9409 22 19.1V21.4C22 21.5591 21.9368 21.7117 21.8243 21.8243C21.7117 21.9368 21.5591 22 21.4 22H17.6C17.4409 22 17.2883 21.9368 17.1757 21.8243C17.0632 21.7117 17 21.5591 17 21.4V19.1C17 18.9409 17.0632 18.7883 17.1757 18.6757C17.2883 18.5632 17.4409 18.5 17.6 18.5H17.833M21.167 18.5V16.75C21.167 16.167 20.833 15 19.5 15C18.167 15 17.833 16.167 17.833 16.75V18.5M21.167 18.5H17.833" stroke="#4F84CF" stroke-width="1.5" stroke-linecap="round" stroke-linejoin="round"/>
</svg>
