<svg width="48" height="46" viewBox="0 0 48 46" fill="none" xmlns="http://www.w3.org/2000/svg">
<path d="M16.4999 2.87354C12.3644 2.87354 9.00586 6.06763 9.00586 10.0136V17.9544C9.00586 18.145 9.08488 18.3278 9.22553 18.4626C9.36618 18.5974 9.55695 18.6731 9.75586 18.6731C9.95477 18.6731 10.1455 18.5974 10.2862 18.4626C10.4268 18.3278 10.5059 18.145 10.5059 17.9544V10.0136C10.5059 6.84388 13.1639 4.31104 16.4999 4.31104C19.8359 4.31104 22.4939 6.84388 22.4939 10.0136V17.9544C22.4939 18.145 22.5729 18.3278 22.7135 18.4626C22.8542 18.5974 23.0449 18.6731 23.2439 18.6731C23.4428 18.6731 23.6335 18.5974 23.7742 18.4626C23.9148 18.3278 23.9939 18.145 23.9939 17.9544V10.0136C23.9939 6.06763 20.6354 2.87354 16.4999 2.87354Z" fill="#2B4255"/>
<path d="M7.5 12.9375H31.5C32.331 12.9375 33 13.5786 33 14.375V43.125C33 43.9214 32.331 44.5625 31.5 44.5625H7.5C6.669 44.5625 6 43.9214 6 43.125V14.375C6 13.5786 6.669 12.9375 7.5 12.9375Z" fill="#E42C34"/>
<path d="M6.084 12.9375H31.416C32.295 12.9375 33 13.5786 33 14.375V43.125C33 43.9214 32.295 44.5625 31.416 44.5625H6.084C5.205 44.5625 4.5 43.9214 4.5 43.125V14.375C4.5 13.5786 5.205 12.9375 6.084 12.9375Z" fill="#FCD062"/>
<path d="M14.25 17.9688C14.25 18.35 14.092 18.7156 13.8107 18.9852C13.5294 19.2548 13.1478 19.4062 12.75 19.4062C12.3522 19.4062 11.9706 19.2548 11.6893 18.9852C11.408 18.7156 11.25 18.35 11.25 17.9688C11.25 17.5875 11.408 17.2219 11.6893 16.9523C11.9706 16.6827 12.3522 16.5312 12.75 16.5312C13.1478 16.5312 13.5294 16.6827 13.8107 16.9523C14.092 17.2219 14.25 17.5875 14.25 17.9688ZM27.75 17.9688C27.75 18.35 27.592 18.7156 27.3107 18.9852C27.0294 19.2548 26.6478 19.4062 26.25 19.4062C25.8522 19.4062 25.4706 19.2548 25.1893 18.9852C24.908 18.7156 24.75 18.35 24.75 17.9688C24.75 17.5875 24.908 17.2219 25.1893 16.9523C25.4706 16.6827 25.8522 16.5312 26.25 16.5312C26.6478 16.5312 27.0294 16.6827 27.3107 16.9523C27.592 17.2219 27.75 17.5875 27.75 17.9688Z" fill="#E6E6E6"/>
<path d="M19.4999 2.87646C15.3644 2.87646 12.0059 6.07354 12.0059 10.0195V17.9587C12.0059 18.1493 12.0849 18.3321 12.2255 18.4669C12.3662 18.6017 12.5569 18.6775 12.7559 18.6775C12.9548 18.6775 13.1455 18.6017 13.2862 18.4669C13.4268 18.3321 13.5059 18.1493 13.5059 17.9587V10.0195C13.5059 6.84979 16.1639 4.31396 19.4999 4.31396C22.8359 4.31396 25.4939 6.84979 25.4939 10.0195V17.9587C25.4939 18.1493 25.5729 18.3321 25.7135 18.4669C25.8542 18.6017 26.0449 18.6775 26.2439 18.6775C26.4428 18.6775 26.6335 18.6017 26.7742 18.4669C26.9148 18.3321 26.9939 18.1493 26.9939 17.9587V10.0195C26.9939 6.07354 23.6354 2.87646 19.4999 2.87646Z" fill="#2B4255"/>
<path d="M3 12.9375C2.169 12.9375 1.5 13.5786 1.5 14.375V43.125C1.5 43.9214 2.169 44.5625 3 44.5625H7.5C6.669 44.5625 6 43.9214 6 43.125V14.375C6 13.5786 6.669 12.9375 7.5 12.9375H3Z" fill="#F8B84E"/>
<path d="M3 12.9375C2.169 12.9375 1.5 13.5786 1.5 14.375V14.3894C1.50249 14.6986 1.60764 15.0019 1.80499 15.2692C2.00234 15.5365 2.28504 15.7585 2.625 15.9131C2.96704 16.0687 3.35504 16.1506 3.75 16.1506C4.14496 16.1506 4.53296 16.0687 4.875 15.9131C5.21496 15.7585 5.49766 15.5365 5.69501 15.2692C5.89236 15.0019 5.99751 14.6986 6 14.3894C6.00002 14.3846 6.00002 14.3798 6 14.375C6 13.5786 6.669 12.9375 7.5 12.9375H3Z" fill="#F17F53"/>
<path d="M20.25 24.4375H44.25C45.081 24.4375 45.75 25.0786 45.75 25.875V43.125C45.75 43.9214 45.081 44.5625 44.25 44.5625H20.25C19.419 44.5625 18.75 43.9214 18.75 43.125V25.875C18.75 25.0786 19.419 24.4375 20.25 24.4375Z" fill="#60C5B8"/>
<path d="M27 28.0312C27 28.4125 26.842 28.7781 26.5607 29.0477C26.2794 29.3173 25.8978 29.4688 25.5 29.4688C25.1022 29.4688 24.7206 29.3173 24.4393 29.0477C24.158 28.7781 24 28.4125 24 28.0312C24 27.65 24.158 27.2844 24.4393 27.0148C24.7206 26.7452 25.1022 26.5938 25.5 26.5938C25.8978 26.5938 26.2794 26.7452 26.5607 27.0148C26.842 27.2844 27 27.65 27 28.0312ZM40.5 28.0312C40.5 28.4125 40.342 28.7781 40.0607 29.0477C39.7794 29.3173 39.3978 29.4688 39 29.4688C38.6022 29.4688 38.2206 29.3173 37.9393 29.0477C37.658 28.7781 37.5 28.4125 37.5 28.0312C37.5 27.65 37.658 27.2844 37.9393 27.0148C38.2206 26.7452 38.6022 26.5938 39 26.5938C39.3978 26.5938 39.7794 26.7452 40.0607 27.0148C40.342 27.2844 40.5 27.65 40.5 28.0312Z" fill="#E6E6E6"/>
<path d="M25.494 27.3109C25.3955 27.3124 25.2982 27.3325 25.2078 27.37C25.1174 27.4075 25.0356 27.4617 24.9671 27.5295C24.8986 27.5973 24.8447 27.6774 24.8084 27.7652C24.7722 27.853 24.7544 27.9468 24.756 28.0412V33.1069C24.756 37.0528 28.1145 40.2456 32.25 40.2456C36.3855 40.2456 39.744 37.0528 39.744 33.1069V28.0412C39.744 27.8506 39.6649 27.6678 39.5243 27.533C39.3836 27.3982 39.1929 27.3225 38.994 27.3225C38.795 27.3225 38.6043 27.3982 38.4636 27.533C38.323 27.6678 38.244 27.8506 38.244 28.0412V33.1069C38.244 36.2765 35.586 38.8081 32.25 38.8081C28.914 38.8081 26.256 36.2765 26.256 33.1069V28.0412C26.2576 27.9449 26.239 27.8492 26.2013 27.7599C26.1635 27.6706 26.1075 27.5894 26.0364 27.5213C25.9653 27.4532 25.8807 27.3995 25.7875 27.3634C25.6943 27.3272 25.5945 27.3093 25.494 27.3109Z" fill="#2B4255"/>
<path d="M15.75 24.4375C14.919 24.4375 14.25 25.0786 14.25 25.875V43.125C14.25 43.9214 14.919 44.5625 15.75 44.5625H20.25C19.419 44.5625 18.75 43.9214 18.75 43.125V25.875C18.75 25.0786 19.419 24.4375 20.25 24.4375H15.75Z" fill="#25B39E"/>
<path d="M15.75 24.4375C14.919 24.4375 14.25 25.0786 14.25 25.875V25.8894C14.2525 26.1986 14.3576 26.5019 14.555 26.7692C14.7523 27.0365 15.035 27.2585 15.375 27.4131C15.717 27.5687 16.105 27.6506 16.5 27.6506C16.895 27.6506 17.283 27.5687 17.625 27.4131C17.965 27.2585 18.2477 27.0365 18.445 26.7692C18.6424 26.5019 18.7475 26.1986 18.75 25.8894C18.75 25.8846 18.75 25.8798 18.75 25.875C18.75 25.0786 19.419 24.4375 20.25 24.4375H15.75Z" fill="#576D7E"/>
</svg>
