<svg width="28" height="30" viewBox="0 0 28 30" fill="none" xmlns="http://www.w3.org/2000/svg">
<path opacity="0.4" d="M24.4687 10.5315C23.7745 10.5315 22.855 10.5165 21.7102 10.5165C18.9181 10.5165 16.6224 8.262 16.6224 5.5125V0.6885C16.6224 0.309 16.3119 0 15.9267 0H7.79422C3.99896 0 0.931396 3.039 0.931396 6.7635V22.926C0.931396 26.8335 4.14511 30 8.11087 30H20.2213C24.0029 30 27.0689 26.9805 27.0689 23.253V11.2065C27.0689 10.8255 26.7599 10.518 26.3732 10.5195C25.7231 10.524 24.9437 10.5315 24.4687 10.5315Z" fill="#0163E0"/>
<path opacity="0.4" d="M20.2794 0.850078C19.8197 0.383578 19.0171 0.704578 19.0171 1.35108V5.30658C19.0171 6.96558 20.4178 8.33058 22.1182 8.33058C23.1899 8.34258 24.6782 8.34558 25.942 8.34258C26.5893 8.34108 26.9183 7.58658 26.4694 7.13058C24.8473 5.48508 21.943 2.53608 20.2794 0.850078Z" fill="#0163E0"/>
<path d="M17.7181 19.339C18.35 19.339 18.8635 19.84 18.8635 20.4565C18.8635 21.073 18.35 21.5725 17.7181 21.5725H9.34791C8.716 21.5725 8.20401 21.073 8.20401 20.4565C8.20401 19.84 8.716 19.339 9.34791 19.339H17.7181ZM14.5522 11.8477C15.1841 11.8477 15.6976 12.3487 15.6976 12.9652C15.6976 13.5817 15.1841 14.0812 14.5522 14.0812H9.34776C8.71584 14.0812 8.20386 13.5817 8.20386 12.9652C8.20386 12.3487 8.71584 11.8477 9.34776 11.8477H14.5522Z" fill="#0163E0"/>
</svg>
