<svg width="54" height="47" viewBox="0 0 54 47" fill="none" xmlns="http://www.w3.org/2000/svg">
<g clip-path="url(#clip0_12002_57903)">
<path d="M41.4187 16.4993L30.1769 18.6596L35.6731 1.74288C36.1513 0.272058 33.9135 -0.669379 32.9105 0.583141L27.9701 6.75114L10.9817 27.9621C10.1577 28.9909 11.2321 30.3726 12.6222 30.0715L22.6406 27.9048L17.161 44.838C16.689 46.297 18.8864 47.2266 19.9018 46.0232L27.9701 36.4587L42.9982 18.6442C43.8501 17.6336 42.8171 16.2301 41.4187 16.4993Z" fill="#FFB703"/>
<path d="M42.9993 18.6442L27.9712 36.4587V6.75115L32.9115 0.583141C33.9145 -0.66938 36.1523 0.272058 35.6741 1.74288L30.1779 18.6596L41.4198 16.4993C42.8181 16.2301 43.8511 17.6336 42.9993 18.6442Z" fill="#FE7500"/>
<path d="M40.4178 38.3897L36.6917 38.3351L38.6707 34.9148C39.0594 34.243 38.7549 33.4216 37.9905 33.0802C37.226 32.7385 36.2914 33.0062 35.9027 33.678L32.7975 39.0446C32.1658 40.133 32.9926 40.8463 34.1832 41.0276L37.9005 41.0821L35.8982 44.6015C35.5147 45.2755 35.8255 46.0949 36.5925 46.432C37.3609 46.7697 38.2927 46.4945 38.6755 45.8219L41.7807 40.3643C42.2906 39.4676 41.5526 38.4044 40.4178 38.3897Z" fill="#FE7500"/>
<path d="M16.2441 0.146255C15.4771 -0.190661 14.5445 0.0824919 14.1611 0.756415L11.0559 6.21402C10.5509 7.1017 11.2711 8.18858 12.4536 8.18858H16.1428L14.1611 11.6716C13.7776 12.3456 14.0885 13.1651 14.8554 13.5022C15.6238 13.8398 16.5557 13.5647 16.9384 12.892L20.0436 7.43443C20.5602 6.52638 19.8004 5.45987 18.6549 5.45987H14.9567L16.9384 1.97683C17.3219 1.30281 17.011 0.483262 16.2441 0.146255Z" fill="#FFB703"/>
</g>
<defs>
<clipPath id="clip0_12002_57903">
<rect width="53" height="46.5758" fill="white" transform="translate(0.5)"/>
</clipPath>
</defs>
</svg>
