<svg width="48" height="48" viewBox="0 0 48 48" fill="none" xmlns="http://www.w3.org/2000/svg">
<path d="M44.3202 20.2253H27.3529L25.2002 36.989H46.4729L44.3202 20.2253Z" fill="#1C8FC7"/>
<path d="M46.4732 36.989H25.2005L25.1423 37.4399C25.063 38.0547 25.1157 38.6793 25.2969 39.2721C25.4781 39.8649 25.7837 40.4121 26.1933 40.8774C26.6028 41.3427 27.1069 41.7153 27.6719 41.9703C28.2368 42.2254 28.8497 42.3569 29.4696 42.3563H42.2041C44.8368 42.3563 46.8659 40.0436 46.5314 37.4399L46.4732 36.989Z" fill="#49A5D2"/>
<path opacity="0.08" d="M33.9124 22.32C33.8459 22.2189 33.7551 22.136 33.6485 22.0789C33.5418 22.0217 33.4225 21.9921 33.3015 21.9927H27.127L25.1997 36.989L25.1415 37.44C24.807 40.0436 26.8433 42.3563 29.4688 42.3563H34.3633V31.8909C34.3633 31.4909 34.6906 31.1636 35.0906 31.1636H38.3415C38.9161 31.1636 39.2652 30.5236 38.9524 30.0363L33.9124 22.32Z" fill="black"/>
<path d="M31.3598 26.3564C32.1631 26.3564 32.8144 25.7051 32.8144 24.9018C32.8144 24.0985 32.1631 23.4473 31.3598 23.4473C30.5565 23.4473 29.9053 24.0985 29.9053 24.9018C29.9053 25.7051 30.5565 26.3564 31.3598 26.3564Z" fill="white"/>
<path d="M40.3129 26.3564C41.1163 26.3564 41.7675 25.7051 41.7675 24.9018C41.7675 24.0985 41.1163 23.4473 40.3129 23.4473C39.5096 23.4473 38.8584 24.0985 38.8584 24.9018C38.8584 25.7051 39.5096 26.3564 40.3129 26.3564Z" fill="white"/>
<path d="M40.3131 23.9927C40.0149 23.9927 39.7676 23.7454 39.7676 23.4472V18.1236C39.7676 15.9563 38.0003 14.1891 35.8331 14.1891C33.6658 14.1891 31.8985 15.9563 31.8985 18.1236V23.4472C31.8985 23.7454 31.6513 23.9927 31.3531 23.9927C31.0549 23.9927 30.8076 23.7454 30.8076 23.4472V18.1236C30.8076 15.3527 33.0622 13.0981 35.8331 13.0981C38.604 13.0981 40.8585 15.3527 40.8585 18.1236V23.4472C40.8585 23.7454 40.6185 23.9927 40.3131 23.9927Z" fill="#2B2A3A"/>
<path d="M22.7341 18.5454C26.2969 18.5454 29.185 15.6572 29.185 12.0945C29.185 8.53172 26.2969 5.64355 22.7341 5.64355C19.1714 5.64355 16.2832 8.53172 16.2832 12.0945C16.2832 15.6572 19.1714 18.5454 22.7341 18.5454Z" fill="#FF7146"/>
<path d="M26.3709 11.5492H23.28V8.4583C23.28 8.16011 23.0327 7.91284 22.7346 7.91284C22.4364 7.91284 22.1891 8.16011 22.1891 8.4583V11.5492H19.0982C18.8 11.5492 18.5527 11.7965 18.5527 12.0947C18.5527 12.3928 18.8 12.6401 19.0982 12.6401H22.1891V15.731C22.1891 16.0292 22.4364 16.2765 22.7346 16.2765C23.0327 16.2765 23.28 16.0292 23.28 15.731V12.6401H26.3709C26.6691 12.6401 26.9164 12.3928 26.9164 12.0947C26.9164 11.7965 26.6691 11.5492 26.3709 11.5492Z" fill="white"/>
<path d="M36.9962 29.7091H19.0326L14.9453 23.4473H32.909L36.9962 29.7091Z" fill="#FFD683"/>
<path d="M19.0326 29.7091L14.9453 23.4473V42.3564H32.9089V29.7091H19.0326Z" fill="#FFC040"/>
<path d="M1.43262 29.7091H10.8653L14.9453 23.4473H5.51989L1.43262 29.7091Z" fill="#FFD683"/>
<path d="M10.865 29.7091H5.51953V42.3564H14.945V23.4473L10.865 29.7091Z" fill="#E5AC39"/>
</svg>
