<svg width="48" height="48" viewBox="0 0 48 48" fill="none" xmlns="http://www.w3.org/2000/svg">
<path d="M38.9682 4L38.1765 12.1328L31.6471 10.1816L33.8235 4.66537L38.9682 4ZM10.0195 4L10.8112 12.1328L17.3406 10.1816L15.1642 4.66537L10.0195 4Z" fill="#F4D851"/>
<path d="M38.971 4H10.0095L13.712 8.21621L9.55273 12.7466H39.4373L35.278 8.21621L38.971 4Z" fill="#FFAA01"/>
<path d="M39.4417 12.7476H9.55792L8.00401 42.0815C7.98347 42.4686 8.04198 42.8558 8.17598 43.2196C8.30998 43.5834 8.51665 43.9161 8.78341 44.1974C9.05016 44.4787 9.37141 44.7027 9.72756 44.8558C10.0837 45.0089 10.4673 45.0879 10.855 45.0879H38.145C38.5327 45.0879 38.9163 45.0089 39.2724 44.8558C39.6286 44.7027 39.9498 44.4787 40.2166 44.1974C40.4833 43.9161 40.69 43.5834 40.824 43.2196C40.958 42.8558 41.0165 42.4686 40.996 42.0815L39.4425 12.748L39.4417 12.7476Z" fill="#FEC200"/>
<path d="M33.0494 17.6209V23.2439C33.0494 28.1583 28.8989 32.1152 23.9205 31.7819C19.383 31.4702 15.9531 27.4917 15.9531 22.9434V17.6209C15.9531 17.18 16.3076 16.8354 16.7378 16.8354C17.1787 16.8354 17.5232 17.18 17.5232 17.6209V23.2439C17.5232 27.3949 21.168 30.7063 25.4154 30.1582C28.9313 29.7064 31.4689 26.5454 31.4689 23.0079V17.6209C31.4689 17.18 31.8239 16.8354 32.2644 16.8354C32.6945 16.8354 33.0494 17.18 33.0494 17.6209Z" fill="white"/>
<path opacity="0.05" d="M40.991 42.0802C41.077 43.7148 39.7758 45.0912 38.1417 45.0912H10.8517C10.4698 45.0921 10.0918 45.0154 9.74059 44.8657C9.38937 44.7159 9.07227 44.4963 8.80859 44.2201L39.4425 12.7476L40.991 42.0802Z" fill="#202121"/>
<path d="M36.5505 24.146C41.2729 24.146 45.1011 20.3178 45.1011 15.5955C45.1011 10.8731 41.2729 7.04492 36.5505 7.04492C31.8282 7.04492 28 10.8731 28 15.5955C28 20.3178 31.8282 24.146 36.5505 24.146Z" fill="#FF7146"/>
<path d="M41.3765 14.8705H37.2796V10.7735C37.2796 10.3783 36.9518 10.0505 36.5566 10.0505C36.1613 10.0505 35.8336 10.3783 35.8336 10.7735V14.8705H31.7367C31.3414 14.8705 31.0137 15.1982 31.0137 15.5934C31.0137 15.9887 31.3414 16.3164 31.7367 16.3164H35.8336V20.4134C35.8336 20.8086 36.1613 21.1364 36.5566 21.1364C36.9518 21.1364 37.2796 20.8086 37.2796 20.4134V16.3164H41.3765C41.7717 16.3164 42.0995 15.9887 42.0995 15.5934C42.0995 15.1982 41.7717 14.8705 41.3765 14.8705Z" fill="white"/>
</svg>
