<svg width="25" height="25" viewBox="0 0 25 25" fill="none" xmlns="http://www.w3.org/2000/svg">
<path d="M14.6677 21.9031C13.5155 21.9031 11.8848 21.0927 10.5959 17.2162L9.89288 15.1071L7.78375 14.404C3.91701 13.1151 3.10656 11.4844 3.10656 10.3322C3.10656 9.18978 3.91701 7.54934 7.78375 6.25067L16.0738 3.48731C18.1439 2.79404 19.8722 2.99909 20.9365 4.05365C22.0009 5.10822 22.2059 6.8463 21.5126 8.91637L18.7493 17.2064C17.4506 21.0927 15.8199 21.9031 14.6677 21.9031ZM8.24268 7.64699C5.52815 8.55509 4.56147 9.62918 4.56147 10.3322C4.56147 11.0353 5.52815 12.1094 8.24268 13.0077L10.7033 13.8279C10.9182 13.8963 11.0939 14.072 11.1623 14.2868L11.9825 16.7475C12.8808 19.462 13.9647 20.4287 14.6677 20.4287C15.3708 20.4287 16.4449 19.462 17.353 16.7475L20.1163 8.45744C20.6143 6.95371 20.5264 5.72338 19.8917 5.08869C19.257 4.454 18.0267 4.37588 16.5327 4.87387L8.24268 7.64699Z" fill="#002766"/>
<path d="M10.6545 14.8435C10.469 14.8435 10.2835 14.7751 10.137 14.6287C9.85382 14.3455 9.85382 13.8768 10.137 13.5936L13.6327 10.0882C13.9158 9.805 14.3845 9.805 14.6677 10.0882C14.9509 10.3713 14.9509 10.84 14.6677 11.1232L11.172 14.6287C11.0353 14.7751 10.84 14.8435 10.6545 14.8435Z" fill="#002766"/>
</svg>
