<svg width="25" height="25" viewBox="0 0 25 25" fill="none" xmlns="http://www.w3.org/2000/svg">
<path d="M19.3351 13.828H2.73551C2.33517 13.828 2.00317 13.496 2.00317 13.0956C2.00317 12.6953 2.33517 12.3633 2.73551 12.3633H19.3351C19.7355 12.3633 20.0675 12.6953 20.0675 13.0956C20.0675 13.496 19.7355 13.828 19.3351 13.828Z" fill="#002766"/>
<path d="M15.6441 22.0204H6.42652C3.0773 22.0204 2.00317 20.956 2.00317 17.6459V10.8205C2.00317 8.19383 2.59883 6.64127 5.62582 6.46551C5.8797 6.45575 6.14335 6.44598 6.42652 6.44598H15.6441C18.9934 6.44598 20.0675 7.51031 20.0675 10.8205V17.8021C20.0284 20.9951 18.9543 22.0204 15.6441 22.0204ZM6.42652 7.91066C6.16288 7.91066 5.91876 7.92042 5.69418 7.93019C3.94634 8.0376 3.46785 8.40865 3.46785 10.8205V17.6459C3.46785 20.1456 3.87799 20.5557 6.42652 20.5557H15.6441C18.1634 20.5557 18.5735 20.1651 18.6028 17.7923V10.8205C18.6028 8.32077 18.1927 7.91066 15.6441 7.91066H6.42652V7.91066Z" fill="#002766"/>
<path d="M19.3351 18.5345C19.1496 18.5345 18.9641 18.4661 18.8371 18.3392C18.6907 18.2025 18.6028 18.0072 18.6028 17.8021V10.8205C18.6028 8.32079 18.1927 7.91068 15.6441 7.91068H6.42651C6.16287 7.91068 5.91875 7.92045 5.69417 7.93021C5.49888 7.93998 5.30354 7.86186 5.15707 7.72516C5.01061 7.58846 4.93251 7.39317 4.93251 7.18811C4.97157 4.00489 6.04569 2.97961 9.35585 2.97961H18.5735C21.9227 2.97961 22.9968 4.04394 22.9968 7.35411V14.1795C22.9968 16.8061 22.4012 18.3587 19.3742 18.5345C19.3644 18.5345 19.3449 18.5345 19.3351 18.5345ZM6.42651 6.44601H15.6441C18.9934 6.44601 20.0675 7.51034 20.0675 10.8205V16.9917C21.2002 16.7866 21.5321 16.2007 21.5321 14.1795V7.35411C21.5321 4.8544 21.122 4.44429 18.5735 4.44429H9.35585C7.12955 4.44429 6.55344 4.74699 6.42651 6.44601Z" fill="#002766"/>
<path d="M7.57894 18.9055H5.89942C5.49908 18.9055 5.16708 18.5735 5.16708 18.1731C5.16708 17.7728 5.49908 17.4408 5.89942 17.4408H7.57894C7.97929 17.4408 8.31128 17.7728 8.31128 18.1731C8.31128 18.5735 7.98905 18.9055 7.57894 18.9055Z" fill="#002766"/>
<path d="M13.0369 18.9055H9.67792C9.27758 18.9055 8.94559 18.5735 8.94559 18.1731C8.94559 17.7728 9.27758 17.4408 9.67792 17.4408H13.0369C13.4373 17.4408 13.7692 17.7728 13.7692 18.1731C13.7692 18.5735 13.447 18.9055 13.0369 18.9055Z" fill="#002766"/>
</svg>
