<svg width="27" height="28" viewBox="0 0 27 28" fill="none" xmlns="http://www.w3.org/2000/svg">
<path d="M24.75 10.5L24.75 19.2033C24.75 21.875 22.6575 24.0333 20.0813 24.0333L6.91875 24.0333C4.3425 24.0333 2.25 21.875 2.25 19.2033L2.25 10.5L24.75 10.5Z" fill="#5C7ABF"/>
<path d="M24.75 8.7968L24.75 10.5001L2.25 10.5001L2.25 8.7968C2.25 6.12513 4.3425 3.9668 6.91875 3.9668L20.0813 3.9668C22.6575 3.9668 24.75 6.12513 24.75 8.7968Z" fill="#5C7ABF"/>
<path d="M9 20.125L6.75 20.125C6.28875 20.125 5.90625 19.7283 5.90625 19.25C5.90625 18.7717 6.28875 18.375 6.75 18.375L9 18.375C9.46125 18.375 9.84375 18.7717 9.84375 19.25C9.84375 19.7283 9.46125 20.125 9 20.125Z" fill="#E8EEFF"/>
<path d="M16.3125 20.125L11.8125 20.125C11.3512 20.125 10.9687 19.7283 10.9687 19.25C10.9687 18.7717 11.3512 18.375 11.8125 18.375L16.3125 18.375C16.7737 18.375 17.1562 18.7717 17.1562 19.25C17.1562 19.7283 16.7737 20.125 16.3125 20.125Z" fill="#E8EEFF"/>
</svg>
