<svg width="25" height="25" viewBox="0 0 25 25" fill="none" xmlns="http://www.w3.org/2000/svg">
<path d="M12.5 22.8796C11.8458 22.8796 11.1818 22.7332 10.6643 22.4305L5.29381 19.3351C3.10657 17.8607 2.96986 17.6361 2.96986 15.3219V9.67805C2.96986 7.36386 3.0968 7.13928 5.24499 5.68437L10.6545 2.55973C11.6798 1.9641 13.2909 1.9641 14.3162 2.55973L19.7062 5.66484C21.8934 7.13928 22.0302 7.36386 22.0302 9.67805V15.3122C22.0302 17.6263 21.9032 17.8509 19.755 19.3058L14.3455 22.4305C13.8182 22.7332 13.1542 22.8796 12.5 22.8796ZM12.5 3.585C12.0899 3.585 11.6896 3.66312 11.4064 3.82912L6.03591 6.93422C4.4443 8.00832 4.4443 8.00832 4.4443 9.67805V15.3122C4.4443 16.9819 4.4443 16.9819 6.07497 18.0853L11.4064 21.1611C11.9825 21.4931 13.0273 21.4931 13.6034 21.1611L18.9739 18.056C20.5557 16.9819 20.5557 16.9819 20.5557 15.3122V9.67805C20.5557 8.00832 20.5557 8.00832 18.925 6.90493L13.5936 3.82912C13.3105 3.66312 12.9101 3.585 12.5 3.585Z" fill="#002766"/>
<path d="M12.5 16.1617C10.4788 16.1617 8.83832 14.5212 8.83832 12.5C8.83832 10.4787 10.4788 8.83829 12.5 8.83829C14.5213 8.83829 16.1617 10.4787 16.1617 12.5C16.1617 14.5212 14.5213 16.1617 12.5 16.1617ZM12.5 10.303C11.2892 10.303 10.303 11.2892 10.303 12.5C10.303 13.7108 11.2892 14.697 12.5 14.697C13.7108 14.697 14.697 13.7108 14.697 12.5C14.697 11.2892 13.7108 10.303 12.5 10.303Z" fill="#002766"/>
</svg>
