<svg width="48" height="48" viewBox="0 0 48 48" fill="none" xmlns="http://www.w3.org/2000/svg">
<path d="M6.00293 41.9775V16.0095H42.0029V41.9759H27.3239" fill="#4BBFEB"/>
<path d="M5.98828 39.702V16.2151H27.0183V39.7037" fill="#78C8F0"/>
<path d="M1.50293 39H27.0029V43.5H1.50293V40.407V39Z" fill="#34485C"/>
<path d="M42.7202 43.5H27.0137V40.5H42.7202" fill="#576D7E"/>
<path d="M34.5029 25.5C32.0099 25.5 30.0029 27.507 30.0029 30V40.5H39.0029V30C39.0029 27.507 36.9959 25.5 34.5029 25.5Z" fill="#34485C"/>
<path fill-rule="evenodd" clip-rule="evenodd" d="M31.5025 33.7484V36.7484H33.0025V33.7484H31.5025ZM12.082 19.9155L9.08203 25.9155L10.423 26.5861L13.423 20.5861L12.082 19.9155ZM15.082 22.9155L11.332 30.4155L12.673 31.0861L16.423 23.5861L15.082 22.9155Z" fill="#E9EDED"/>
<path d="M9.74121 14.5454C9.74093 15.6341 9.32265 16.6799 8.57502 17.4611C7.8274 18.2423 6.80919 18.6976 5.73621 18.7304C4.66269 18.7628 3.61895 18.3697 2.82644 17.6346C2.03392 16.8995 1.55498 15.8802 1.49121 14.7929" fill="#F23F4E"/>
<path d="M15.5055 15.0481C15.5056 16.0244 15.1287 16.9611 14.457 17.6545C13.7853 18.3478 12.8731 18.7416 11.919 18.7501C10.9649 18.7587 10.046 18.3813 9.36246 17.7001C8.67894 17.0188 8.28612 16.0888 8.26953 15.1126L11.886 15.0481H15.5055Z" fill="#FF9142"/>
<path d="M45.624 14.616C45.624 14.691 46.5135 14.766 46.509 14.841C46.4786 15.5187 46.2831 16.1787 45.9393 16.7636C45.5955 17.3484 45.1139 17.8403 44.5365 18.1965C43.9403 18.5585 43.2562 18.75 42.5587 18.75C41.8612 18.75 41.1771 18.5585 40.581 18.1965C39.357 17.4585 38.604 16.0935 38.604 14.616H42.5595H45.624ZM21.5145 15.0315C21.5306 15.6757 21.3781 16.3127 21.0728 16.8769C20.7675 17.4411 20.3204 17.9121 19.7775 18.2415C19.2346 18.5704 18.6156 18.7458 17.9842 18.7498C17.3528 18.7537 16.7318 18.586 16.185 18.264C15.6383 17.942 15.1854 17.4773 14.873 16.9176C14.5606 16.3579 14.3999 15.7235 14.4075 15.0795L17.9625 15.1245L21.5145 15.0315Z" fill="#F23F4E"/>
<path d="M27.0495 15.429C27.0497 16.0121 26.897 16.5849 26.6068 17.09C26.3166 17.595 25.8992 18.0144 25.3965 18.306C24.8939 18.5974 24.3238 18.7509 23.7435 18.7509C23.1632 18.7509 22.5931 18.5974 22.0905 18.306C21.5878 18.0144 21.1704 17.595 20.8802 17.09C20.59 16.5849 20.4373 16.0121 20.4375 15.429" fill="#FF9142"/>
<path d="M32.9909 15.3569C32.9912 15.9528 32.8352 16.5382 32.5387 17.0543C32.2422 17.5704 31.8156 17.999 31.3019 18.2969C30.7882 18.595 30.2054 18.7519 29.6121 18.7519C29.0189 18.7519 28.4361 18.595 27.9224 18.2969C27.4086 17.999 26.9821 17.5704 26.6856 17.0543C26.3891 16.5382 26.2331 15.9528 26.2334 15.3569" fill="#F23F4E"/>
<path d="M39.0153 15.429C39.0155 16.0121 38.8628 16.5849 38.5726 17.09C38.2825 17.595 37.865 18.0144 37.3623 18.306C36.8597 18.5974 36.2896 18.7509 35.7093 18.7509C35.129 18.7509 34.5589 18.5974 34.0563 18.306C33.5536 18.0144 33.1362 17.595 32.846 17.09C32.5558 16.5849 32.4032 16.0121 32.4033 15.429" fill="#FF9142"/>
<path d="M39.217 5.25439H16.9585L12.3535 15.5085H43.387L39.217 5.25439Z" fill="#F23F4E"/>
<path d="M11.9395 5.25H21.6625L20.959 15.504H7.76953" fill="#FF5642"/>
<path d="M16.1493 5.25011L15.4458 15.5041H2.25632C1.71332 15.5041 1.30532 14.9641 1.57832 14.5966L5.74832 5.55311C5.83128 5.45488 5.93532 5.37662 6.05271 5.32416C6.1701 5.2717 6.2978 5.24639 6.42632 5.25011H16.1493Z" fill="#F23F4E"/>
<path d="M10.7913 5.25011L9.23882 15.5041H2.25632C1.71332 15.5041 1.30532 14.9641 1.57832 14.5966L5.74832 5.55311C5.83128 5.45488 5.93532 5.37662 6.05271 5.32416C6.1701 5.2717 6.2978 5.24639 6.42632 5.25011H10.7913ZM36.0408 5.25011H26.3193L27.0213 15.5041H40.2108" fill="#FF5642"/>
<path d="M31.8311 5.24991L32.5361 15.5039H45.7241C46.2686 15.5039 46.6751 14.9639 46.4036 14.5964L42.2336 5.55291C42.1504 5.45448 42.0462 5.3761 41.9285 5.32363C41.8108 5.27116 41.6828 5.24596 41.5541 5.24991H31.8311Z" fill="#F23F4E"/>
<path d="M37.2031 5.24991L38.7541 15.5039H45.7381C46.2811 15.5039 46.6876 14.9639 46.4161 14.5964L42.2461 5.55291C42.163 5.45448 42.0587 5.3761 41.9411 5.32363C41.8234 5.27116 41.6954 5.24596 41.5666 5.24991H37.2031Z" fill="#FF5642"/>
<path d="M42.0029 39H46.5029V43.5H42.0029V39Z" fill="#34485C"/>
</svg>
