<svg width="25" height="25" viewBox="0 0 25 25" fill="none" xmlns="http://www.w3.org/2000/svg">
<path d="M16.4058 22.9968H8.59419C5.64531 22.9968 3.95605 21.3076 3.95605 18.3587V8.8383C3.95605 5.76248 5.51837 4.20016 8.59419 4.20016C8.99453 4.20016 9.32652 4.53216 9.32652 4.9325C9.32652 5.32308 9.48276 5.69413 9.75617 5.96754C10.0296 6.24094 10.4006 6.39718 10.7912 6.39718H14.2088C15.0192 6.39718 15.6734 5.74295 15.6734 4.9325C15.6734 4.53216 16.0054 4.20016 16.4058 4.20016C19.4816 4.20016 21.0439 5.76248 21.0439 8.8383V18.3587C21.0439 21.3076 19.3547 22.9968 16.4058 22.9968ZM7.95947 5.68437C6.41668 5.81131 5.42073 6.50459 5.42073 8.8383V18.3587C5.42073 20.5264 6.42647 21.5321 8.59419 21.5321H16.4058C18.5735 21.5321 19.5792 20.5264 19.5792 18.3587V8.8383C19.5792 6.50459 18.5833 5.82107 17.0405 5.68437C16.7085 6.93423 15.566 7.86185 14.2088 7.86185H10.7912C10.01 7.86185 9.27771 7.55915 8.72113 7.00257C8.35008 6.63152 8.09618 6.18236 7.95947 5.68437Z" fill="#002766"/>
<path d="M14.2088 7.86187H10.7912C10.0101 7.86187 9.27772 7.55917 8.72114 7.00259C8.16457 6.44601 7.86186 5.71368 7.86186 4.93252C7.86186 3.32138 9.18007 2.00317 10.7912 2.00317H14.2088C14.9899 2.00317 15.7223 2.30588 16.2789 2.86245C16.8354 3.41903 17.1381 4.15136 17.1381 4.93252C17.1381 6.54366 15.8199 7.86187 14.2088 7.86187ZM10.7912 3.46785C9.98076 3.46785 9.32654 4.12207 9.32654 4.93252C9.32654 5.3231 9.48277 5.69415 9.75618 5.96756C10.0296 6.24096 10.4006 6.3972 10.7912 6.3972H14.2088C15.0192 6.3972 15.6735 5.74297 15.6735 4.93252C15.6735 4.54194 15.5172 4.17089 15.2438 3.89749C14.9704 3.62408 14.5994 3.46785 14.2088 3.46785H10.7912Z" fill="#002766"/>
<path d="M12.5 14.2088H8.5942C8.19385 14.2088 7.86186 13.8768 7.86186 13.4764C7.86186 13.0761 8.19385 12.7441 8.5942 12.7441H12.5C12.9003 12.7441 13.2323 13.0761 13.2323 13.4764C13.2323 13.8768 12.9003 14.2088 12.5 14.2088Z" fill="#002766"/>
<path d="M16.4058 18.1146H8.5942C8.19385 18.1146 7.86186 17.7826 7.86186 17.3822C7.86186 16.9819 8.19385 16.6499 8.5942 16.6499H16.4058C16.8061 16.6499 17.1381 16.9819 17.1381 17.3822C17.1381 17.7826 16.8061 18.1146 16.4058 18.1146Z" fill="#002766"/>
</svg>
