<svg width="25" height="25" viewBox="0 0 25 25" fill="none" xmlns="http://www.w3.org/2000/svg">
<path fill-rule="evenodd" clip-rule="evenodd" d="M12.5066 2.7355C14.0862 2.7355 15.6599 3.12517 17.0581 3.86236C21.8185 6.37412 23.6492 12.2905 21.1391 17.0526C19.4271 20.2998 16.0563 22.2645 12.4954 22.2645C11.7997 22.2645 11.0972 22.1897 10.3981 22.0348C10.0043 21.9471 9.75576 21.5565 9.84261 21.1626C9.92946 20.7686 10.319 20.5217 10.7154 20.6069C14.3519 21.4155 18.1063 19.6701 19.8459 16.3704C21.9801 12.3224 20.4237 7.29109 16.3762 5.15609C15.1878 4.52901 13.8498 4.19783 12.5057 4.19783H12.4963C7.92073 4.19783 4.19735 7.92161 4.19735 12.4987C4.19563 13.832 4.52068 15.1593 5.13722 16.3386L5.32468 16.7051C5.55428 17.1352 5.60501 17.6693 5.45625 18.1528C5.25073 18.6947 5.07961 19.222 4.93859 19.7467C5.48721 19.5815 6.15707 19.3381 6.64119 19.1618L6.83983 19.0904C7.21561 18.9502 7.63782 19.1489 7.77541 19.5291C7.91299 19.9084 7.71607 20.3282 7.33686 20.465L7.1408 20.5364L7.10748 20.5484L7.10746 20.5484C6.3866 20.8097 5.41594 21.1614 4.75715 21.3088C4.70039 21.3209 4.63934 21.3286 4.58345 21.3269C4.13458 21.3269 3.86113 21.1454 3.71065 20.9923C3.47933 20.7574 3.36927 20.428 3.38216 20.0134C3.38388 19.966 3.3899 19.917 3.40108 19.8697C3.57478 19.1299 3.80094 18.3919 4.07439 17.6771C4.09416 17.6074 4.08212 17.4809 4.02623 17.3751L3.83791 17.0096C3.11645 15.6281 2.7338 14.0651 2.73552 12.4978C2.73552 7.11475 7.11414 2.7355 12.4954 2.7355H12.5066ZM7.03528 12.4992C7.03528 11.8583 7.55552 11.3379 8.19615 11.3379C8.83678 11.3379 9.35702 11.8583 9.35702 12.4992C9.35702 13.1391 8.83678 13.6596 8.19615 13.6596C7.55552 13.6596 7.03528 13.1391 7.03528 12.4992ZM13.6566 12.4988C13.6566 11.8588 13.1364 11.3375 12.4958 11.3375C11.8551 11.3375 11.3349 11.8588 11.3349 12.4988C11.3349 13.1388 11.8551 13.66 12.4958 13.66C13.1364 13.66 13.6566 13.1388 13.6566 12.4988ZM16.7953 11.3375C17.4359 11.3375 17.9561 11.8588 17.9561 12.4988C17.9561 13.1388 17.4359 13.66 16.7953 13.66C16.1546 13.66 15.6344 13.1388 15.6344 12.4988C15.6344 11.8588 16.1546 11.3375 16.7953 11.3375Z" fill="#002766"/>
</svg>
