<svg width="345" height="140" viewBox="0 0 345 140" fill="none" xmlns="http://www.w3.org/2000/svg">
<mask id="mask0_12012_89980" style="mask-type:alpha" maskUnits="userSpaceOnUse" x="0" y="0" width="345" height="140">
<path d="M0 30C0 15.8579 0 8.7868 4.3934 4.3934C8.7868 0 15.8579 0 30 0H315C329.142 0 336.213 0 340.607 4.3934C345 8.7868 345 15.8579 345 30V140H0V30Z" fill="#F7F7F7"/>
</mask>
<g mask="url(#mask0_12012_89980)">
<path d="M150.039 41L141.289 52.7023V93.6523C141.287 95.2012 141.9 96.6877 142.993 97.7848C144.087 98.8818 145.571 99.4997 147.12 99.5025H187.942C189.491 99.4997 190.976 98.8818 192.069 97.7848C193.163 96.6877 193.776 95.2012 193.773 93.6523V52.7023L185.027 41H150.039Z" fill="#F0F0F0" stroke="#9C9898" stroke-linecap="round" stroke-linejoin="round"/>
<path d="M141 52.8433H193.5" stroke="#9C9898" stroke-linecap="round" stroke-linejoin="round"/>
<path d="M179.573 64.23C179.573 65.8127 179.262 67.3799 178.656 68.8422C178.05 70.3044 177.162 71.6331 176.043 72.7522C174.924 73.8714 173.595 74.7591 172.133 75.3648C170.671 75.9705 169.104 76.2822 167.521 76.2822C165.938 76.2822 164.371 75.9705 162.909 75.3648C161.447 74.7591 160.118 73.8714 158.999 72.7522C157.88 71.6331 156.992 70.3044 156.386 68.8422C155.78 67.3799 155.469 65.8127 155.469 64.23" fill="#F0F0F0"/>
<path d="M179.573 64.23C179.573 65.8127 179.262 67.3799 178.656 68.8422C178.05 70.3044 177.162 71.6331 176.043 72.7522C174.924 73.8714 173.595 74.7591 172.133 75.3648C170.671 75.9705 169.104 76.2822 167.521 76.2822C165.938 76.2822 164.371 75.9705 162.909 75.3648C161.447 74.7591 160.118 73.8714 158.999 72.7522C157.88 71.6331 156.992 70.3044 156.386 68.8422C155.78 67.3799 155.469 65.8127 155.469 64.23" stroke="#9C9898" stroke-linecap="round" stroke-linejoin="round"/>
</g>
</svg>
