<svg width="32" height="28" viewBox="0 0 32 28" fill="none" xmlns="http://www.w3.org/2000/svg">
<path d="M23.0398 0.5C28.3384 0.5 31.4694 3.46793 31.4694 8.50679V8.56269H24.9586C21.9287 8.56789 19.4742 10.9027 19.4687 13.7848C19.4646 16.6735 21.9219 19.0187 24.9586 19.0226H31.4749V19.4815C31.4749 24.5204 28.3438 27.5 23.0453 27.5H9.15582C3.85589 27.5 0.724854 24.5204 0.724854 19.4815V8.50679C0.724854 3.46793 3.85589 0.5 9.15582 0.5H23.0398ZM16.6889 6.31235H8.01192C7.36685 6.31496 6.84342 6.81287 6.84068 7.42778C6.83795 8.04528 7.36275 8.54839 8.01192 8.55099H16.6998C17.349 8.54839 17.8738 8.04528 17.8711 7.42648C17.8683 6.80897 17.3381 6.30976 16.6889 6.31235Z" fill="#F79E1B"/>
<path opacity="0.4" d="M22.3073 14.4466C22.6288 15.8733 23.911 16.8772 25.3749 16.8511H30.3716C30.9807 16.8511 31.4748 16.3589 31.4748 15.7506V11.9533C31.4735 11.3463 30.9807 10.8529 30.3716 10.8516H25.2572C23.5921 10.8568 22.2471 12.2052 22.2498 13.867C22.2498 14.0615 22.2694 14.256 22.3073 14.4466Z" fill="#F79E1B"/>
<path d="M25.3249 15.3516C26.174 15.3516 26.8624 14.68 26.8624 13.8516C26.8624 13.0231 26.174 12.3516 25.3249 12.3516C24.4757 12.3516 23.7874 13.0231 23.7874 13.8516C23.7874 14.68 24.4757 15.3516 25.3249 15.3516Z" fill="#F79E1B"/>
</svg>
