<svg width="24" height="24" viewBox="0 0 24 24" fill="none" xmlns="http://www.w3.org/2000/svg">
<path d="M17.7475 5.71696C17.5075 5.67696 17.2575 5.66697 16.9975 5.66697H6.9975C6.7175 5.66697 6.4475 5.68697 6.1875 5.72697C6.3275 5.44697 6.52749 5.187 6.76749 4.947L10.0175 1.68699C11.3875 0.326992 13.6075 0.326992 14.9775 1.68699L16.7275 3.45695C17.3675 4.08695 17.7075 4.88696 17.7475 5.71696Z" fill="white"/>
<path d="M2 16.36V12C2 9.28 3.64 7.38 6.19 7.06C6.45 7.02 6.72 7 7 7H17C17.26 7 17.51 7.00999 17.75 7.04999C20.33 7.34999 22 9.26 22 12V17C22 19.76 19.76 22 17 22H7.63H7C4.24 22 2 19.76 2 17V16.36Z" fill="white"/>
<path d="M22 12.5H19C17.9 12.5 17 13.4 17 14.5C17 15.6 17.9 16.5 19 16.5H22" fill="white"/>
</svg>
